<svg width="280" height="280" viewBox="0 0 280 280" fill="none" xmlns="http://www.w3.org/2000/svg">
<g clip-path="url(#clip0_1_1081)">
<path d="M269.921 210.784H-10.0794V210.924H269.921V210.784Z" fill="#EBEBEB"/>
<path d="M241.865 219.794H223.318V219.934H241.865V219.794Z" fill="#EBEBEB"/>
<path d="M175.403 221.317H170.536V221.457H175.403V221.317Z" fill="#EBEBEB"/>
<path d="M222.758 214.597H212.011V214.737H222.758V214.597Z" fill="#EBEBEB"/>
<path d="M43.4856 215.538H19.2992V215.678H43.4856V215.538Z" fill="#EBEBEB"/>
<path d="M52.0193 215.538H48.4745V215.678H52.0193V215.538Z" fill="#EBEBEB"/>
<path d="M116.005 217.901H63.5438V218.041H116.005V217.901Z" fill="#EBEBEB"/>
<path d="M122.642 185.808H14.5113C13.6643 185.806 12.8524 185.469 12.2539 184.869C11.6555 184.27 11.3193 183.457 11.3193 182.61V30.6093C11.3267 29.7671 11.6661 28.9618 12.2637 28.3683C12.8614 27.7749 13.6691 27.4412 14.5113 27.4397H122.642C123.49 27.4397 124.303 27.7766 124.903 28.3763C125.502 28.9759 125.839 29.7893 125.839 30.6373V182.61C125.839 183.458 125.502 184.272 124.903 184.871C124.303 185.471 123.49 185.808 122.642 185.808ZM14.5113 27.5517C13.7014 27.5532 12.9251 27.876 12.3529 28.4493C11.7807 29.0225 11.4593 29.7994 11.4593 30.6093V182.61C11.4593 183.42 11.7807 184.197 12.3529 184.77C12.9251 185.343 13.7014 185.666 14.5113 185.668H122.642C123.452 185.666 124.229 185.344 124.802 184.771C125.375 184.197 125.698 183.421 125.699 182.61V30.6093C125.698 29.7989 125.375 29.022 124.802 28.4489C124.229 27.8758 123.452 27.5532 122.642 27.5517H14.5113Z" fill="#EBEBEB"/>
<path d="M243.774 185.808H135.638C134.79 185.806 133.978 185.469 133.378 184.87C132.779 184.27 132.442 183.458 132.44 182.61V30.6093C132.449 29.7666 132.79 28.9613 133.388 28.368C133.987 27.7747 134.795 27.4412 135.638 27.4397H243.774C244.615 27.4426 245.421 27.777 246.018 28.3703C246.614 28.9636 246.953 29.7681 246.96 30.6093V182.61C246.96 183.456 246.625 184.268 246.028 184.867C245.43 185.467 244.62 185.805 243.774 185.808ZM135.638 27.5517C134.827 27.5532 134.05 27.8758 133.477 28.4489C132.904 29.022 132.582 29.7989 132.58 30.6093V182.61C132.582 183.421 132.904 184.197 133.477 184.771C134.05 185.344 134.827 185.666 135.638 185.668H243.774C244.584 185.666 245.361 185.344 245.934 184.771C246.507 184.197 246.83 183.421 246.831 182.61V30.6093C246.83 29.7989 246.507 29.022 245.934 28.4489C245.361 27.8758 244.584 27.5532 243.774 27.5517H135.638Z" fill="#EBEBEB"/>
<path d="M190.966 129.645H178.478V134.96H190.966V129.645Z" fill="#FAFAFA"/>
<path d="M175.857 129.645H163.369V134.96H175.857V129.645Z" fill="#FAFAFA"/>
<path d="M160.748 129.645H148.26V134.96H160.748V129.645Z" fill="#FAFAFA"/>
<path d="M198.52 137.043H186.032V142.357H198.52V137.043Z" fill="#FAFAFA"/>
<path d="M183.411 137.043H170.923V142.357H183.411V137.043Z" fill="#FAFAFA"/>
<path d="M168.302 137.043H155.814V142.357H168.302V137.043Z" fill="#FAFAFA"/>
<path d="M153.193 137.043H140.705V142.357H153.193V137.043Z" fill="#FAFAFA"/>
<path d="M222.874 144.441H210.386V149.755H222.874V144.441Z" fill="#FAFAFA"/>
<path d="M207.767 144.441H195.279V149.755H207.767V144.441Z" fill="#FAFAFA"/>
<path d="M175.857 144.441H163.369V149.755H175.857V144.441Z" fill="#FAFAFA"/>
<path d="M160.748 144.441H148.26V149.755H160.748V144.441Z" fill="#FAFAFA"/>
<path d="M145.639 144.441H133.151V149.755H145.639V144.441Z" fill="#FAFAFA"/>
<path d="M215.32 151.833H202.832V157.147H215.32V151.833Z" fill="#FAFAFA"/>
<path d="M183.411 151.833H170.923V157.147H183.411V151.833Z" fill="#FAFAFA"/>
<path d="M168.302 151.833H155.814V157.147H168.302V151.833Z" fill="#FAFAFA"/>
<path d="M153.193 151.833H140.705V157.147H153.193V151.833Z" fill="#FAFAFA"/>
<path d="M94.2539 54.2974H81.7659V59.6118H94.2539V54.2974Z" fill="#FAFAFA"/>
<path d="M79.145 54.2973H66.657V59.6117H79.145V54.2973Z" fill="#FAFAFA"/>
<path d="M101.808 61.695H89.3204V67.0094H101.808V61.695Z" fill="#FAFAFA"/>
<path d="M86.6995 61.6949H74.2115V67.0093H86.6995V61.6949Z" fill="#FAFAFA"/>
<path d="M56.4828 61.695H43.9948V67.0094H56.4828V61.695Z" fill="#FAFAFA"/>
<path d="M41.3738 61.695H28.8858V67.0094H41.3738V61.695Z" fill="#FAFAFA"/>
<path d="M79.145 69.0925H66.657V74.4069H79.145V69.0925Z" fill="#FAFAFA"/>
<path d="M216.687 97.5852H204.199V102.9H216.687V97.5852Z" fill="#FAFAFA"/>
<path d="M190.378 97.5853H177.89V102.9H190.378V97.5853Z" fill="#FAFAFA"/>
<path d="M224.248 104.983H211.76V110.297H224.248V104.983Z" fill="#FAFAFA"/>
<path d="M209.133 104.983H196.645V110.297H209.133V104.983Z" fill="#FAFAFA"/>
<path d="M80.2147 90.1261H67.7267V95.4405H80.2147V90.1261Z" fill="#FAFAFA"/>
<path d="M48.3009 90.1262H35.8129V95.4406H48.3009V90.1262Z" fill="#FAFAFA"/>
<path d="M87.7692 97.5182H75.2812V102.833H87.7692V97.5182Z" fill="#FAFAFA"/>
<path d="M67.0543 97.5182H54.5663V102.833H67.0543V97.5182Z" fill="#FAFAFA"/>
<path d="M216.687 112.381H204.199V117.695H216.687V112.381Z" fill="#FAFAFA"/>
<path d="M190.378 112.381H177.89V117.695H190.378V112.381Z" fill="#FAFAFA"/>
<path d="M48.9283 69.0923H36.4403V74.4067H48.9283V69.0923Z" fill="#FAFAFA"/>
<path d="M225.843 54.4988H213.355V59.8132H225.843V54.4988Z" fill="#FAFAFA"/>
<path d="M210.734 54.4988H198.246V59.8132H210.734V54.4988Z" fill="#FAFAFA"/>
<path d="M218.289 61.8909H205.801V67.2053H218.289V61.8909Z" fill="#FAFAFA"/>
<path d="M158.155 54.6164H145.667V59.9308H158.155V54.6164Z" fill="#FAFAFA"/>
<path d="M143.047 54.6164H130.559V59.9308H143.047V54.6164Z" fill="#FAFAFA"/>
<path d="M165.709 62.0084H153.221V67.3228H165.709V62.0084Z" fill="#FAFAFA"/>
<path d="M150.602 62.0085H138.114V67.3229H150.602V62.0085Z" fill="#FAFAFA"/>
<path d="M135.493 62.0085H123.005V67.3229H135.493V62.0085Z" fill="#FAFAFA"/>
<path d="M173.264 69.406H160.776V74.7204H173.264V69.406Z" fill="#FAFAFA"/>
<path d="M158.155 69.406H145.667V74.7204H158.155V69.406Z" fill="#FAFAFA"/>
<path d="M143.047 69.4061H130.559V74.7205H143.047V69.4061Z" fill="#FAFAFA"/>
<path d="M165.709 76.8037H153.221V82.1181H165.709V76.8037Z" fill="#FAFAFA"/>
<path d="M150.602 76.8037H138.114V82.1181H150.602V76.8037Z" fill="#FAFAFA"/>
<path d="M64.1546 127.64H51.6666V132.955H64.1546V127.64Z" fill="#FAFAFA"/>
<path d="M49.0399 127.641H36.5519V132.955H49.0399V127.641Z" fill="#FAFAFA"/>
<path d="M107.532 128.312H95.0435V133.627H107.532V128.312Z" fill="#FAFAFA"/>
<path d="M71.7091 135.032H59.2211V140.347H71.7091V135.032Z" fill="#FAFAFA"/>
<path d="M56.5944 135.032H44.1064V140.347H56.5944V135.032Z" fill="#FAFAFA"/>
<path d="M115.086 135.71H102.598V141.024H115.086V135.71Z" fill="#FAFAFA"/>
<path d="M99.9728 135.71H87.4848V141.024H99.9728V135.71Z" fill="#FAFAFA"/>
<path d="M140.068 111.798H127.58V117.113H140.068V111.798Z" fill="#FAFAFA"/>
<path d="M61.7297 108.281H49.2417V113.596H61.7297V108.281Z" fill="#FAFAFA"/>
<path d="M123.038 85.5735H110.55V90.8879H123.038V85.5735Z" fill="#FAFAFA"/>
<path d="M132.514 104.406H120.026V109.72H132.514V104.406Z" fill="#FAFAFA"/>
<path d="M147.623 104.406H135.135V109.72H147.623V104.406Z" fill="#FAFAFA"/>
<path d="M204.344 205.368H191.856V210.683H204.344V205.368Z" fill="#FAFAFA"/>
<path d="M211.898 197.976H199.41V203.291H211.898V197.976Z" fill="#FAFAFA"/>
<path d="M64.1546 142.43H51.6666V147.744H64.1546V142.43Z" fill="#FAFAFA"/>
<path d="M49.0399 142.43H36.5519V147.744H49.0399V142.43Z" fill="#FAFAFA"/>
<path d="M71.7091 149.828H59.2211V155.142H71.7091V149.828Z" fill="#FAFAFA"/>
<path d="M56.5944 149.828H44.1064V155.142H56.5944V149.828Z" fill="#FAFAFA"/>
<path d="M87.8638 170.285H75.3758V175.599H87.8638V170.285Z" fill="#FAFAFA"/>
<path d="M72.7548 170.285H60.2668V175.599H72.7548V170.285Z" fill="#FAFAFA"/>
<path d="M57.6416 170.285H45.1536V175.599H57.6416V170.285Z" fill="#FAFAFA"/>
<path d="M42.5326 170.285H30.0446V175.599H42.5326V170.285Z" fill="#FAFAFA"/>
<path d="M95.4183 177.682H82.9303V182.996H95.4183V177.682Z" fill="#FAFAFA"/>
<path d="M80.3093 177.682H67.8213V182.997H80.3093V177.682Z" fill="#FAFAFA"/>
<path d="M50.0871 177.682H37.5991V182.997H50.0871V177.682Z" fill="#FAFAFA"/>
<path d="M102.973 185.074H90.4848V190.388H102.973V185.074Z" fill="#FAFAFA"/>
<path d="M87.8638 185.074H75.3758V190.388H87.8638V185.074Z" fill="#FAFAFA"/>
<path d="M72.7548 185.074H60.2668V190.388H72.7548V185.074Z" fill="#FAFAFA"/>
<path d="M95.4183 192.472H82.9303V197.786H95.4183V192.472Z" fill="#FAFAFA"/>
<path d="M80.3093 192.472H67.8213V197.786H80.3093V192.472Z" fill="#FAFAFA"/>
<path d="M65.2019 192.472H52.7139V197.786H65.2019V192.472Z" fill="#FAFAFA"/>
<path d="M190.081 169.943H177.593V175.257H190.081V169.943Z" fill="#FAFAFA"/>
<path d="M158.173 169.943H145.685V175.257H158.173V169.943Z" fill="#FAFAFA"/>
<path d="M143.064 169.943H130.576V175.257H143.064V169.943Z" fill="#FAFAFA"/>
<path d="M197.642 177.341H185.154V182.655H197.642V177.341Z" fill="#FAFAFA"/>
<path d="M165.728 177.341H153.24V182.655H165.728V177.341Z" fill="#FAFAFA"/>
<path d="M150.619 177.34H138.131V182.655H150.619V177.34Z" fill="#FAFAFA"/>
<path d="M135.51 177.341H123.022V182.655H135.51V177.341Z" fill="#FAFAFA"/>
<path d="M205.195 184.732H192.707V190.047H205.195V184.732Z" fill="#FAFAFA"/>
<path d="M190.081 184.732H177.593V190.047H190.081V184.732Z" fill="#FAFAFA"/>
<path d="M158.173 184.732H145.685V190.047H158.173V184.732Z" fill="#FAFAFA"/>
<path d="M143.064 184.732H130.576V190.047H143.064V184.732Z" fill="#FAFAFA"/>
<path d="M180.835 192.13H168.347V197.444H180.835V192.13Z" fill="#FAFAFA"/>
<path d="M165.728 192.13H153.24V197.444H165.728V192.13Z" fill="#FAFAFA"/>
<path d="M150.619 192.13H138.131V197.444H150.619V192.13Z" fill="#FAFAFA"/>
<path d="M135.51 192.13H123.022V197.444H135.51V192.13Z" fill="#FAFAFA"/>
<path d="M162.977 145.202H216.916V83.5071H162.977V145.202Z" fill="#E0E0E0"/>
<path d="M163.079 145.202H214.941V83.5071H163.079V145.202Z" fill="#E0E0E0"/>
<path d="M161.292 145.202H215.232V83.5071H161.292V145.202Z" fill="#F0F0F0"/>
<path d="M163.744 142.363H212.879V85.467H163.744V142.363Z" fill="white"/>
<path d="M163.745 142.363H165.28V85.467H163.745V142.363Z" fill="#E0E0E0"/>
<path d="M165.117 126.386V127.921H213.019V126.386H165.117Z" fill="#E0E0E0"/>
<path d="M163.744 126.381H213.701V123.805H163.744V126.381Z" fill="#F0F0F0"/>
<path d="M49.2255 145.202H103.165L103.165 83.5071H49.2255L49.2255 145.202Z" fill="#E0E0E0"/>
<path d="M49.3305 145.202H101.192L101.192 83.507H49.3305L49.3305 145.202Z" fill="#E0E0E0"/>
<path d="M47.5453 145.202H101.484L101.484 83.5071H47.5453L47.5453 145.202Z" fill="#F0F0F0"/>
<path d="M49.9916 142.363H99.126V85.467H49.9916L49.9916 142.363Z" fill="white"/>
<path d="M49.9923 142.363H51.5267L51.5267 85.467H49.9923L49.9923 142.363Z" fill="#E0E0E0"/>
<path d="M51.3642 126.38V127.915H99.2666V126.38H51.3642Z" fill="#E0E0E0"/>
<path d="M49.9922 126.381H99.9498V123.805H49.9922V126.381Z" fill="#F0F0F0"/>
<path d="M129.919 236.073C189.885 236.073 238.498 233.235 238.498 229.734C238.498 226.233 189.885 223.395 129.919 223.395C69.953 223.395 21.3408 226.233 21.3408 229.734C21.3408 233.235 69.953 236.073 129.919 236.073Z" fill="#F5F5F5"/>
<path d="M39.9729 215.269C39.9729 215.269 39.2001 209.574 35.5545 208.953C31.9089 208.331 33.0065 205.593 32.0601 204.506C31.1137 203.42 28.6329 206.584 30.7553 209.636C32.8777 212.688 31.1417 211.725 32.0601 214.558C32.9785 217.392 40.3201 219.996 39.9729 215.269Z" fill="#263238"/>
<path opacity="0.2" d="M39.9729 215.269C39.9729 215.269 39.2001 209.574 35.5545 208.953C31.9089 208.331 33.0065 205.593 32.0601 204.506C31.1137 203.42 28.6329 206.584 30.7553 209.636C32.8777 212.688 31.1417 211.725 32.0601 214.558C32.9785 217.392 40.3201 219.996 39.9729 215.269Z" fill="white"/>
<path d="M39.8204 219.223C39.7728 219.224 39.726 219.211 39.6853 219.186C39.6447 219.162 39.6119 219.126 39.5908 219.083C39.5908 219.022 36.7908 213.097 38.2468 203.655C38.7182 200.955 39.4689 198.31 40.4868 195.765C42.2508 190.96 43.6396 187.163 40.4588 180.23C39.4508 178.035 38.4204 175.991 37.4236 174.014C33.6828 166.589 30.7316 160.726 32.9436 154.784C32.9674 154.722 33.015 154.671 33.0759 154.644C33.1367 154.617 33.206 154.615 33.2684 154.638C33.3 154.648 33.3292 154.665 33.3542 154.687C33.3792 154.708 33.3994 154.735 33.4136 154.765C33.4278 154.795 33.4357 154.828 33.4367 154.861C33.4377 154.894 33.4319 154.927 33.4196 154.958C31.2972 160.692 34.2092 166.471 37.8996 173.785C38.8964 175.767 39.9268 177.817 40.9404 180.018C44.2108 187.141 42.7156 191.218 40.9852 195.938C39.9651 198.45 39.2142 201.063 38.7452 203.734C37.306 213.007 40.022 218.803 40.05 218.854C40.0788 218.914 40.0827 218.983 40.0606 219.046C40.0386 219.109 39.9925 219.161 39.9324 219.19C39.8979 219.209 39.8597 219.22 39.8204 219.223Z" fill="#263238"/>
<path d="M37.7198 217.84C37.7198 217.84 35.3622 214.289 38.7614 212.464C42.1606 210.638 42.8438 212.111 44.9214 210.784C46.999 209.457 48.6174 206.304 48.9758 208.325C49.3342 210.347 46.9094 211.523 47.7662 212.453C48.623 213.382 42.071 219.43 37.7198 217.84Z" fill="#263238"/>
<path d="M32.1602 157.836C32.1602 157.836 29.8698 150.864 35.089 150.718C40.3082 150.573 34.5514 157.091 32.1602 157.836Z" fill="#263238"/>
<path d="M36.6948 163.201C36.6948 163.201 38.2516 156.856 41.9532 158.194C45.6548 159.533 40.3852 163.318 36.6948 163.201Z" fill="#263238"/>
<path d="M30.4126 163.75C30.4126 163.75 30.9726 158.71 27.0526 158.586C23.1326 158.463 24.8574 162.96 30.4126 163.75Z" fill="#263238"/>
<path d="M33.0393 174.07C33.0393 174.07 27.7641 169.366 25.8657 172.866C23.9673 176.366 29.8361 177.094 33.0393 174.07Z" fill="#263238"/>
<path d="M42.3571 173.236C42.3571 173.236 43.3483 165.396 47.6099 167.877C51.8715 170.357 46.0699 174.02 42.3571 173.236Z" fill="#263238"/>
<path d="M46.1098 184.419C46.1098 184.419 42.9626 176.529 48.809 177.419C54.6554 178.309 50.237 182.504 46.1098 184.419Z" fill="#263238"/>
<path d="M37.138 187.236C37.138 187.236 32.2044 181.44 28.43 183.266C24.6556 185.091 27.7412 190.887 37.138 187.236Z" fill="#263238"/>
<path d="M41.618 200.121C41.618 200.121 45.8236 190.781 49.5644 193.928C53.3052 197.075 47.1788 201.779 41.618 200.121Z" fill="#263238"/>
<path d="M35.5084 199.573C35.5084 199.573 36.6284 192.326 32.4564 192.909C28.2844 193.491 29.3876 197.926 35.5084 199.573Z" fill="#263238"/>
<g opacity="0.2">
<path d="M32.1599 157.836C32.1599 157.836 29.8695 150.864 35.0887 150.719C40.3079 150.573 34.5511 157.091 32.1599 157.836Z" fill="white"/>
<path d="M36.6943 163.201C36.6943 163.201 38.2511 156.856 41.9527 158.194C45.6543 159.533 40.3847 163.318 36.6943 163.201Z" fill="white"/>
<path d="M30.4122 163.75C30.4122 163.75 30.9722 158.71 27.0522 158.587C23.1322 158.463 24.857 162.96 30.4122 163.75Z" fill="white"/>
<path d="M33.0389 174.07C33.0389 174.07 27.7637 169.366 25.8653 172.866C23.9669 176.366 29.8357 177.094 33.0389 174.07Z" fill="white"/>
<path d="M42.3567 173.236C42.3567 173.236 43.3479 165.396 47.6095 167.877C51.8711 170.358 46.0695 174.02 42.3567 173.236Z" fill="white"/>
<path d="M46.1094 184.419C46.1094 184.419 42.9622 176.529 48.8086 177.419C54.655 178.31 50.2366 182.504 46.1094 184.419Z" fill="white"/>
<path d="M37.1377 187.236C37.1377 187.236 32.2041 181.44 28.4297 183.266C24.6553 185.091 27.7409 190.887 37.1377 187.236Z" fill="white"/>
<path d="M41.6177 200.122C41.6177 200.122 45.8233 190.781 49.5641 193.928C53.3049 197.075 47.1785 201.779 41.6177 200.122Z" fill="white"/>
<path d="M35.508 199.573C35.508 199.573 36.628 192.326 32.456 192.909C28.284 193.491 29.3872 197.926 35.508 199.573Z" fill="white"/>
</g>
<path d="M34.4225 167.395C34.3799 167.395 34.3378 167.386 34.2993 167.367C31.2081 165.637 28.9849 162.367 28.8953 162.232C28.8763 162.205 28.863 162.174 28.856 162.141C28.8491 162.108 28.8488 162.075 28.855 162.042C28.8613 162.009 28.874 161.978 28.8925 161.95C28.9109 161.922 28.9347 161.898 28.9625 161.879C29.0185 161.842 29.0867 161.829 29.1525 161.841C29.2184 161.854 29.2768 161.892 29.3153 161.947C30.6575 163.869 32.3572 165.516 34.3217 166.796C34.7921 165.923 36.4889 162.91 37.9057 162.059C37.9629 162.024 38.0316 162.013 38.0967 162.029C38.1289 162.036 38.1593 162.051 38.1861 162.07C38.2129 162.09 38.2356 162.114 38.2529 162.143C38.2702 162.171 38.2817 162.202 38.2869 162.235C38.292 162.268 38.2906 162.301 38.2828 162.334C38.275 162.366 38.2609 162.396 38.2414 162.423C38.2219 162.45 38.1972 162.472 38.1689 162.49C36.6625 163.391 34.6633 167.222 34.6465 167.261C34.6308 167.291 34.6093 167.317 34.5833 167.338C34.5574 167.359 34.5274 167.375 34.4953 167.384C34.4721 167.393 34.4473 167.397 34.4225 167.395Z" fill="#263238"/>
<path d="M39.1995 177.089C39.1448 177.09 39.0913 177.072 39.0483 177.038C34.6523 173.718 29.0355 173.858 28.9683 173.858C28.9017 173.856 28.8379 173.831 28.7892 173.785C28.7406 173.74 28.7106 173.678 28.7051 173.611C28.7043 173.578 28.7101 173.545 28.7221 173.514C28.7341 173.484 28.752 173.455 28.7749 173.431C28.7978 173.407 28.8252 173.388 28.8555 173.375C28.8858 173.362 28.9184 173.354 28.9515 173.354C29.0075 173.354 34.6131 173.208 39.1155 176.467C39.7035 175.532 41.9603 172.133 44.8611 170.425C44.919 170.391 44.9881 170.381 45.0532 170.398C45.1184 170.415 45.1741 170.457 45.2083 170.514C45.2424 170.572 45.2522 170.641 45.2354 170.707C45.2186 170.772 45.1766 170.827 45.1187 170.862C41.9211 172.743 39.4291 176.921 39.4067 176.966C39.3882 176.996 39.3638 177.022 39.3349 177.042C39.306 177.062 39.2732 177.076 39.2387 177.083L39.1995 177.089Z" fill="#263238"/>
<path d="M42.251 189.896C42.2059 189.896 42.1614 189.885 42.1222 189.862C42.0606 189.823 35.6374 186.133 30.995 186.043C30.9339 186.034 30.8781 186.003 30.8378 185.957C30.7975 185.91 30.7753 185.85 30.7753 185.788C30.7753 185.727 30.7975 185.667 30.8378 185.62C30.8781 185.573 30.9339 185.543 30.995 185.534C35.419 185.623 41.1814 188.754 42.195 189.336C45.1742 186.822 47.543 180.656 47.5654 180.594C47.5759 180.562 47.593 180.532 47.6155 180.506C47.638 180.481 47.6655 180.46 47.6963 180.445C47.7271 180.43 47.7606 180.422 47.7947 180.421C47.8288 180.419 47.8628 180.425 47.8948 180.437C47.9267 180.449 47.9558 180.467 47.9803 180.491C48.0048 180.515 48.0243 180.543 48.0375 180.575C48.0507 180.606 48.0573 180.64 48.057 180.674C48.0567 180.709 48.0495 180.742 48.0358 180.774C47.935 181.037 45.527 187.314 42.3798 189.84C42.3426 189.87 42.2981 189.889 42.251 189.896Z" fill="#263238"/>
<path d="M38.5318 203.134C38.4867 203.134 38.4425 203.122 38.403 203.101C35.9782 201.712 32.8422 195.636 32.7134 195.378C32.6822 195.319 32.6759 195.249 32.6958 195.185C32.7158 195.121 32.7604 195.068 32.8198 195.037C32.8792 195.005 32.9486 194.999 33.0126 195.019C33.0767 195.039 33.1302 195.083 33.1614 195.143C33.1614 195.205 36.191 201.023 38.4702 202.546C40.3254 200.38 42.7806 198.811 45.5262 198.038C45.59 198.019 45.6589 198.026 45.7177 198.057C45.7765 198.089 45.8204 198.142 45.8398 198.206C45.8591 198.271 45.8524 198.34 45.821 198.4C45.7896 198.46 45.736 198.505 45.6718 198.525C42.958 199.277 40.5389 200.84 38.739 203.005C38.7174 203.042 38.6873 203.073 38.6512 203.095C38.6151 203.118 38.5741 203.131 38.5318 203.134Z" fill="#263238"/>
<path d="M38.079 216.989C38.079 216.989 36.0574 213.774 33.7782 213.315C31.499 212.856 30.5134 210.229 29.6734 211.809C28.8334 213.388 31.1518 218.629 38.079 216.989Z" fill="#263238"/>
<path d="M29.8531 229.606H46.6979L47.8235 216.003H28.7275L29.8531 229.606Z" fill="#0A0A0A"/>
<path d="M28.3298 218.579H48.2154L48.473 215.695H28.0778L28.3298 218.579Z" fill="#0A0A0A"/>
<path opacity="0.3" d="M28.3298 218.579H48.2154L48.473 215.695H28.0778L28.3298 218.579Z" fill="white"/>
<path d="M146.984 113.355L146.133 113.518C146.066 113.522 146 113.507 145.941 113.474C145.883 113.441 145.836 113.392 145.805 113.332C145.775 113.272 145.763 113.205 145.77 113.139C145.778 113.072 145.805 113.009 145.848 112.958H145.881C145.64 113.064 145.4 113.171 145.148 113.266C145.127 113.639 145.127 114.013 145.148 114.386L150.641 142.8L130.179 146.765C130.185 146.806 130.185 146.847 130.179 146.888C130.17 146.977 130.127 147.059 130.059 147.116C129.991 147.174 129.904 147.202 129.815 147.196C129.484 147.135 129.148 147.073 128.812 147.028L101.72 152.281C101.715 152.329 101.7 152.374 101.675 152.415C101.573 152.587 101.458 152.752 101.333 152.908C101.349 153.008 101.338 153.111 101.3 153.205C101.09 153.833 100.818 154.439 100.488 155.014C100.38 155.165 100.221 155.271 100.04 155.311C99.9218 155.335 99.7994 155.325 99.6869 155.283C99.5585 155.559 99.4644 155.851 99.4069 156.151L142.818 147.751L142.857 147.7C143.11 147.461 143.41 147.278 143.738 147.161C144.066 147.044 144.414 146.997 144.761 147.023C145.008 146.733 145.302 146.487 145.629 146.295C145.777 146.198 145.947 146.139 146.123 146.124C146.299 146.11 146.476 146.139 146.637 146.211C146.852 146.338 147.017 146.536 147.102 146.771C147.53 146.718 147.959 146.688 148.39 146.681L154.55 145.483L148.53 114.442C147.934 114.211 147.403 113.838 146.984 113.355Z" fill="#0A0A0A"/>
<path d="M90.8665 72.7496L91.0681 72.7888L95.1169 72.0048C95.5649 71.8088 96.0073 71.6016 96.4385 71.4168C97.2532 71.0317 98.1287 70.7911 99.0257 70.7056C99.5606 70.6809 100.095 70.7608 100.599 70.9408L135.42 64.1928L138.651 80.8472C138.689 80.7938 138.741 80.7523 138.801 80.7276C138.862 80.7028 138.928 80.696 138.992 80.7078C139.057 80.7195 139.116 80.7495 139.164 80.7941C139.212 80.8386 139.246 80.896 139.262 80.9592C139.45 81.6916 139.551 82.4433 139.564 83.1992C139.547 83.5622 139.463 83.919 139.318 84.252L144.811 112.605C145.142 112.482 145.467 112.347 145.791 112.202C145.824 112.006 145.895 111.82 146.002 111.653C146.109 111.487 146.249 111.344 146.413 111.233C146.648 111.122 146.915 111.102 147.163 111.177C147.293 110.883 147.387 110.575 147.443 110.258C147.522 109.873 147.558 109.481 147.55 109.088L147.331 107.94C147.331 107.878 147.281 107.822 147.253 107.766C147.23 107.723 147.218 107.675 147.218 107.626C147.218 107.578 147.23 107.53 147.253 107.486L141.474 77.6832C141.44 77.6886 141.406 77.6886 141.373 77.6832C141.171 77.7048 140.966 77.6709 140.782 77.585C140.597 77.4992 140.44 77.3647 140.326 77.196C140.166 76.8695 140.117 76.5001 140.186 76.1432C140.242 75.7232 140.348 75.3088 140.432 74.8944C140.522 74.5284 140.549 74.1495 140.511 73.7744C140.497 73.7111 140.504 73.645 140.53 73.5857C140.556 73.5263 140.6 73.4768 140.656 73.444L138.091 60.2224L87.8761 70C86.9436 70.5424 85.8804 70.8193 84.8017 70.8008C84.7508 70.7976 84.7014 70.7816 84.6584 70.7542C84.6153 70.7267 84.5798 70.6889 84.5553 70.644L59.6409 75.4768C59.6263 75.5416 59.5939 75.6011 59.5474 75.6486C59.501 75.696 59.4422 75.7296 59.3777 75.7456L58.0673 75.9976C58.0622 76.1967 58.0021 76.3905 57.8937 76.5576C57.8848 76.6358 57.8468 76.7078 57.7873 76.7592C57.7013 76.8295 57.6191 76.9043 57.5409 76.9832C57.3897 77.1232 57.2441 77.2744 57.0873 77.4088C57.034 77.46 56.9685 77.4967 56.8969 77.5152C56.8386 77.5253 56.7786 77.5204 56.7228 77.5008C56.6669 77.4811 56.617 77.4476 56.5777 77.4032C56.5198 77.3345 56.4899 77.2466 56.4937 77.1568C56.4906 77.1252 56.4906 77.0933 56.4937 77.0616C56.2921 77.0616 56.0905 77.0616 55.8945 77.0112C55.8064 77.0014 55.7254 76.9582 55.6682 76.8905C55.6109 76.8228 55.5817 76.7358 55.5865 76.6472C55.5937 76.5591 55.6353 76.4773 55.7024 76.4196C55.7695 76.3619 55.8567 76.3331 55.9449 76.3392C56.1564 76.37 56.3697 76.3868 56.5833 76.3896H56.7513C56.7755 76.3924 56.8 76.3924 56.8241 76.3896C56.6595 76.3661 56.5086 76.2847 56.3985 76.16C56.3968 76.1452 56.3968 76.1301 56.3985 76.1152L41.9729 78.9152C42.0396 78.916 42.105 78.9334 42.1633 78.9656C42.2354 79.0165 42.285 79.0934 42.3017 79.18C42.3184 79.2666 42.3009 79.3564 42.2529 79.4304C42.1375 79.5839 42.0082 79.7264 41.8665 79.856L41.8273 79.9008C41.8273 79.8728 41.8609 79.9008 41.8273 79.9008C41.8032 79.9293 41.7807 79.9593 41.7601 79.9904C41.7601 79.9904 41.7601 80.0352 41.7601 80.052C41.7575 80.0706 41.7575 80.0895 41.7601 80.108C41.7575 80.1191 41.7575 80.1306 41.7601 80.1416C41.7528 80.1992 41.7312 80.2541 41.6972 80.3012C41.6632 80.3482 41.618 80.386 41.5656 80.4111C41.5133 80.4362 41.4554 80.4477 41.3975 80.4447C41.3395 80.4416 41.2832 80.4241 41.2337 80.3936C41.204 80.3776 41.1718 80.3662 41.1385 80.36C41.1039 80.3463 41.0684 80.3351 41.0321 80.3264C41.0331 80.4843 40.9905 80.6393 40.9089 80.7744C40.877 80.821 40.8331 80.858 40.7818 80.8817C40.7306 80.9053 40.6739 80.9147 40.6177 80.9088C40.5615 81.2241 40.4557 81.5284 40.3041 81.8104C40.1351 82.0986 39.9059 82.3469 39.6321 82.5384C39.6863 82.6111 39.7314 82.6901 39.7665 82.7736L61.2145 78.6184V78.5848C61.3055 78.4326 61.4231 78.2979 61.5617 78.1872C61.6537 78.119 61.7601 78.0729 61.8728 78.0525C61.9855 78.0321 62.1013 78.038 62.2113 78.0696C62.3874 78.1241 62.5523 78.2095 62.6985 78.3216L90.4689 72.94C90.5011 72.8657 90.5591 72.8055 90.6322 72.7705C90.7052 72.7355 90.7884 72.7281 90.8665 72.7496Z" fill="#0A0A0A"/>
<path d="M53.5201 161.638L48.4801 135.682C48.4359 135.733 48.3775 135.769 48.3127 135.786C48.2478 135.803 48.1793 135.8 48.1161 135.778C48.0324 135.748 47.9636 135.687 47.9248 135.608C47.886 135.528 47.8803 135.436 47.9089 135.352C47.9927 135.106 48.1198 134.876 48.2841 134.674L41.6817 100.565L41.6201 100.458C41.4858 100.182 41.3897 99.8876 41.3345 99.5848C41.2189 99.5763 41.1029 99.5763 40.9873 99.5848C40.9365 99.5934 40.8845 99.5903 40.8351 99.5759C40.7857 99.5615 40.7401 99.5362 40.7019 99.5017C40.6637 99.4672 40.6337 99.4246 40.6143 99.3769C40.5949 99.3292 40.5865 99.2778 40.5897 99.2264C40.5831 98.5803 40.7494 97.9442 41.0713 97.384L38.3945 83.5856C38.3498 83.512 38.3105 83.4353 38.2769 83.356L38.1425 83.104C38.0875 83.1026 38.0339 83.0862 37.9875 83.0566C37.9412 83.027 37.9037 82.9853 37.8793 82.936C37.8404 82.8565 37.8344 82.7648 37.8628 82.6809C37.8911 82.597 37.9514 82.5277 38.0305 82.488C38.1704 82.4337 38.298 82.3518 38.4057 82.2472C38.482 82.1603 38.5443 82.0621 38.5905 81.956C38.6785 81.7193 38.7258 81.4694 38.7305 81.2168C38.6464 81.1029 38.5855 80.9735 38.5513 80.836C38.5259 80.648 38.5431 80.4566 38.6017 80.276C38.6136 80.2288 38.6388 80.186 38.6745 80.1528C38.6745 79.94 38.6409 79.7272 38.6297 79.5144L34.3457 80.3432L46.5705 143.41C46.6315 143.378 46.7025 143.369 46.7697 143.385C46.8369 143.402 46.8956 143.443 46.9345 143.5C47.2511 143.843 47.4253 144.293 47.4217 144.76C47.4049 144.852 47.3786 144.942 47.3433 145.029C47.3998 145.07 47.4413 145.128 47.4615 145.195C47.4818 145.262 47.4796 145.333 47.4553 145.398C47.2915 145.719 47.2383 146.086 47.3041 146.44C47.3744 146.773 47.4699 147.101 47.5897 147.42C47.8009 147.956 47.8285 148.547 47.6681 149.1L50.8601 165.581L51.7673 165.402C52.2773 165.233 52.7972 165.097 53.3241 164.993C53.3162 164.954 53.3166 164.914 53.3253 164.875C53.334 164.837 53.3507 164.8 53.3745 164.769C53.5076 164.615 53.6497 164.469 53.8001 164.332C53.7861 164.275 53.7861 164.215 53.8001 164.158C53.8941 163.771 54.1124 163.425 54.4217 163.173C54.7023 162.966 55.0487 162.868 55.3961 162.898C55.7308 162.941 56.052 163.056 56.3367 163.237C56.6214 163.418 56.8624 163.66 57.0425 163.946C57.9609 163.722 58.9521 163.386 59.8425 163.839L94.6521 157.119C94.6627 157.028 94.6814 156.938 94.7081 156.85C94.8504 156.397 95.116 155.992 95.4753 155.68C95.529 155.634 95.5961 155.606 95.6667 155.601C95.7372 155.596 95.8076 155.614 95.8673 155.652C95.8944 155.608 95.9322 155.572 95.9773 155.546C96.0224 155.521 96.0732 155.508 96.1249 155.508C96.1766 155.508 96.2274 155.521 96.2725 155.546C96.3176 155.572 96.3554 155.608 96.3825 155.652L96.5225 155.82L96.5841 155.876L96.6905 155.949L96.8081 156.005C96.7017 155.681 96.7017 155.332 96.8081 155.008C96.8737 154.826 96.9761 154.659 97.1091 154.519C97.2421 154.378 97.4027 154.266 97.5809 154.19C97.5477 154.146 97.5264 154.093 97.519 154.038C97.5115 153.983 97.5182 153.926 97.5383 153.875C97.5584 153.823 97.5913 153.776 97.634 153.741C97.6767 153.705 97.7278 153.68 97.7825 153.67C97.8554 153.661 97.9293 153.675 97.9932 153.712C98.0571 153.748 98.1075 153.804 98.1371 153.871C98.1666 153.939 98.1737 154.014 98.1572 154.085C98.1408 154.157 98.1017 154.221 98.0457 154.269L98.0849 154.314C98.1238 154.393 98.1297 154.485 98.1014 154.569C98.0731 154.653 98.0128 154.722 97.9337 154.762L97.8049 154.823L97.7321 154.862L97.6929 154.89L97.6033 154.969L97.5697 155.008L97.5137 155.092V155.126C97.501 155.155 97.4898 155.185 97.4801 155.215C97.5915 155.068 97.7213 154.937 97.8665 154.823C97.9637 154.756 98.0691 154.701 98.1801 154.661C98.4545 154.056 98.7121 153.44 98.9697 152.835L53.5201 161.638Z" fill="#0A0A0A"/>
<path d="M61.7961 135.52C61.8558 135.455 61.9258 135.4 62.0033 135.357L72.1169 115.377L67.4689 116.278L63.3921 124.258C63.4176 124.264 63.4421 124.273 63.4649 124.286C63.537 124.337 63.5866 124.414 63.6033 124.5C63.62 124.587 63.6025 124.677 63.5545 124.751C63.4593 124.891 63.3865 125.042 63.3025 125.188C63.3753 125.233 63.4425 125.289 63.5153 125.328C63.5705 125.365 63.6132 125.418 63.6382 125.48C63.6631 125.542 63.6691 125.61 63.6553 125.675C63.6416 125.74 63.6094 125.799 63.5627 125.846C63.516 125.892 63.4567 125.924 63.3921 125.938L63.2801 126H63.2521H63.2185L63.0001 126.101H62.9497L62.8713 126.162L62.6977 126.313L62.6081 126.409L62.5689 126.453L62.4121 126.655C62.3001 126.806 62.1993 126.963 62.0929 127.12C62.041 127.193 61.9627 127.243 61.8745 127.26L55.9105 138.941L56.4705 141.954L59.1193 141.439C59.2042 141.188 59.3461 140.96 59.5337 140.773C59.6224 140.689 59.7201 140.616 59.8249 140.554C59.8222 140.534 59.8222 140.513 59.8249 140.493C59.9505 139.136 60.3916 137.829 61.1129 136.673C61.077 136.617 61.0579 136.552 61.0579 136.486C61.0579 136.419 61.077 136.354 61.1129 136.298C61.2043 136.139 61.2398 135.954 61.2137 135.772C61.2144 135.705 61.2345 135.639 61.2717 135.583C61.3088 135.527 61.3614 135.483 61.423 135.456C61.4847 135.43 61.5527 135.422 61.619 135.433C61.6852 135.444 61.7467 135.474 61.7961 135.52Z" fill="#0A0A0A"/>
<path d="M79.2178 133.744C79.2119 133.828 79.189 133.91 79.1506 133.985C78.9845 134.31 78.7144 134.571 78.3834 134.724C78.3162 134.825 78.2434 134.92 78.1818 135.016C78.1455 135.067 78.0948 135.106 78.0362 135.128C78.0362 135.178 77.997 135.234 77.9858 135.284C77.9726 135.328 77.9508 135.368 77.9216 135.403C77.8923 135.438 77.8564 135.466 77.8158 135.487C77.7753 135.508 77.731 135.52 77.6857 135.522C77.6403 135.525 77.5949 135.519 77.552 135.504C77.5092 135.489 77.4699 135.465 77.4365 135.434C77.4031 135.403 77.3762 135.366 77.3576 135.325C77.339 135.283 77.329 135.239 77.3282 135.193C77.3274 135.148 77.3358 135.103 77.353 135.06C77.4081 134.868 77.4792 134.681 77.5658 134.5L77.2466 134.562C77.1599 134.577 77.0708 134.558 76.9978 134.509C76.9247 134.46 76.8735 134.385 76.8546 134.299C76.846 134.273 76.846 134.246 76.8546 134.22L76.6586 134.26L75.393 127.68L71.3498 128.464L72.6154 135.004L62.6082 136.942C62.541 136.976 62.4794 137.026 62.4122 137.065V137.11C62.4368 137.182 62.4361 137.261 62.4101 137.333C62.3841 137.405 62.3344 137.466 62.2691 137.505C62.2039 137.545 62.127 137.562 62.0512 137.552C61.9754 137.542 61.9052 137.507 61.8522 137.452C61.6655 137.612 61.4949 137.79 61.3426 137.984C61.401 137.967 61.463 137.967 61.5214 137.984C61.5798 138.001 61.6323 138.034 61.673 138.079C61.7041 138.11 61.7289 138.146 61.7457 138.187C61.7626 138.227 61.7713 138.27 61.7713 138.314C61.7713 138.358 61.7626 138.401 61.7457 138.442C61.7289 138.482 61.7041 138.519 61.673 138.549L61.4042 138.773C61.4382 138.83 61.4562 138.895 61.4562 138.961C61.4562 139.027 61.4382 139.092 61.4042 139.148V139.188C61.4014 139.208 61.4014 139.229 61.4042 139.249C61.4042 139.328 61.4042 139.412 61.4042 139.496C61.3924 139.646 61.3268 139.787 61.2194 139.893C61.0972 139.998 60.9476 140.066 60.7882 140.089H60.749C60.7646 140.257 60.7889 140.423 60.8218 140.588C60.8979 140.74 60.958 140.899 61.001 141.064L73.2594 138.689L74.637 146.16L78.8146 145.353L77.381 137.95L83.0986 136.83L82.3818 133.134L79.2178 133.744Z" fill="#0A0A0A"/>
<path d="M103.488 113.584L103.22 113.82C103.091 113.932 102.968 114.044 102.85 114.161L102.699 114.329L102.615 114.43C102.519 114.57 102.375 114.67 102.211 114.711C102.047 114.753 101.873 114.734 101.722 114.657C101.571 114.581 101.452 114.452 101.389 114.295C101.326 114.138 101.321 113.963 101.377 113.803L101.534 113.209C101.534 113.209 101.489 113.164 101.472 113.131C101.427 113.047 101.404 112.952 101.405 112.856C101.394 112.765 101.406 112.673 101.439 112.588C101.439 112.52 101.489 112.453 101.517 112.386C101.395 112.267 101.292 112.129 101.215 111.977V111.932C98.8528 110.69 96.1293 110.317 93.5204 110.88C86.4644 112.246 82.3204 118.86 84.202 128.665C86.0836 138.471 92.434 143.052 99.49 141.685C100.124 141.564 100.747 141.394 101.355 141.176C101.551 140.896 101.747 140.616 101.915 140.341C101.981 140.245 102.071 140.168 102.175 140.115C102.28 140.063 102.396 140.038 102.512 140.043C102.629 140.047 102.743 140.081 102.843 140.141C102.943 140.201 103.026 140.285 103.085 140.386C107.828 137.743 110.292 131.88 108.747 123.905C107.868 119.28 105.975 115.808 103.488 113.584ZM98.7508 137.86C94.0188 138.779 89.998 135.542 88.5028 127.836C87.0076 120.131 89.5276 115.628 94.2596 114.716C95.5029 114.447 96.7959 114.521 98.0003 114.93C99.2047 115.34 100.275 116.069 101.097 117.04C101.177 116.983 101.266 116.941 101.36 116.916C101.544 116.883 101.732 116.924 101.886 117.028C102.04 117.133 102.147 117.294 102.184 117.476C102.243 117.832 102.252 118.194 102.212 118.552C103.323 120.453 104.082 122.54 104.452 124.712C105.958 132.445 103.438 136.953 98.7508 137.86Z" fill="#0A0A0A"/>
<path d="M134.148 123.099L132.882 116.558L128.833 117.342L130.105 123.883L118.529 126.123L129.601 104.249L124.953 105.145L120.792 113.299C120.753 114.317 120.546 115.321 120.181 116.273C120.156 116.335 120.112 116.389 120.056 116.427C119.999 116.465 119.933 116.485 119.865 116.485C119.797 116.485 119.731 116.465 119.674 116.427C119.618 116.389 119.574 116.335 119.549 116.273C119.437 117.14 119.029 117.943 118.395 118.546C118.354 118.585 118.302 118.611 118.247 118.622C118.192 118.633 118.134 118.628 118.081 118.608L113.372 127.837L113.932 130.849L120.898 129.5C121.492 129.027 122.195 128.71 122.942 128.576C123.599 128.424 124.268 128.336 124.941 128.313C125.446 128.274 125.954 128.312 126.448 128.425L130.67 127.607L132.104 135.005L136.276 134.198L134.842 126.801L140.565 125.681L139.849 121.985L134.148 123.099Z" fill="#0A0A0A"/>
<path d="M57.1759 105.173L56.5151 101.769L63.3471 100.447L62.8319 97.7982L55.9999 99.1198L55.3839 95.9222L63.1175 94.427L62.5575 91.6942L51.4415 93.8502L52.3935 98.7558C52.5632 98.8424 52.7136 98.9624 52.8359 99.1086C53.0471 99.3753 53.1738 99.699 53.1999 100.038C53.2727 100.738 53.0991 101.461 53.1999 102.138C53.2135 102.195 53.2101 102.254 53.1902 102.309C53.1703 102.364 53.1347 102.412 53.0879 102.446L54.3199 108.561L65.7103 106.355L65.1839 103.6L57.1759 105.173Z" fill="#0A0A0A"/>
<path d="M77.2348 99.215C78.0611 98.691 78.7094 97.929 79.0943 97.0293C79.4791 96.1297 79.5825 95.1345 79.3908 94.175C79.3343 94.234 79.2591 94.2716 79.178 94.2814C79.1124 94.2858 79.047 94.2706 78.9902 94.2377C78.9333 94.2048 78.8876 94.1556 78.8588 94.0966C78.7823 93.918 78.7314 93.7294 78.7076 93.5366C78.7076 93.5086 78.7076 93.4862 78.7076 93.4582C78.604 93.3259 78.5296 93.1732 78.4892 93.0102C78.4757 92.9229 78.496 92.8338 78.546 92.761C78.5959 92.6882 78.6717 92.6371 78.758 92.6182C78.792 92.6094 78.8276 92.6079 78.8623 92.6136C78.897 92.6194 78.9302 92.6324 78.9596 92.6518C77.89 90.2606 75.314 89.1966 71.9428 89.8518L65.5756 91.0838L66.438 95.5246C66.506 95.5535 66.5602 95.6077 66.5892 95.6758C67.131 96.7763 67.4688 97.9659 67.586 99.187C67.5994 99.2743 67.5791 99.3634 67.5292 99.4362C67.4792 99.509 67.4034 99.5601 67.3172 99.579C67.2857 99.5844 67.2535 99.5844 67.222 99.579L68.426 105.84L71.8308 105.179L71.0356 101.085L74.166 100.475L77.7948 104.025L81.4516 103.314L77.2348 99.215ZM73.2812 97.8206L70.4812 98.3806L69.4844 93.2566L72.2844 92.6966C74.362 92.2934 75.5996 93.0326 75.9132 94.651C76.2268 96.2694 75.3644 97.4398 73.2812 97.8206Z" fill="#0A0A0A"/>
<path d="M92.6857 96.219C93.5398 95.6765 94.2034 94.881 94.5839 93.9434C94.9643 93.0058 95.0427 91.9728 94.8081 90.9885C94.1697 87.6901 91.3193 86.1278 87.3881 86.8894L81.0209 88.1269L83.8713 102.833L87.2761 102.177L86.4809 98.0782L89.6113 97.4678L93.2457 101.018L96.9025 100.307L92.6857 96.219ZM88.7321 94.8301L85.9321 95.3901L84.9409 90.2605L87.7129 89.7005C87.8865 89.6669 88.0545 89.6446 88.2113 89.6278L88.3177 89.5382C88.3277 89.4543 88.3465 89.3717 88.3737 89.2917C88.4101 89.1946 88.4763 89.1115 88.5628 89.0542C88.6493 88.9969 88.7516 88.9683 88.8553 88.9726C89.0541 88.9923 89.2456 89.0575 89.4153 89.163C89.4444 89.1278 89.4807 89.0992 89.5217 89.079C89.524 88.9715 89.5371 88.8646 89.5609 88.7598C89.5935 88.6797 89.6556 88.6153 89.7345 88.5799C89.8133 88.5445 89.9027 88.5409 89.9842 88.5697C90.0657 88.5985 90.1329 88.6577 90.1719 88.7348C90.2109 88.8119 90.2187 88.901 90.1937 88.9837C90.1265 89.2413 90.2497 89.471 90.2273 89.7342C90.2196 89.7968 90.2006 89.8575 90.1713 89.9133C90.4861 90.0961 90.7549 90.3486 90.9568 90.6515C91.1587 90.9544 91.2885 91.2996 91.3361 91.6605C91.6721 93.2565 90.8097 94.4269 88.7321 94.8301Z" fill="#0A0A0A"/>
<path d="M108.796 84.0501L108.623 84.0949C108.581 84.1089 108.542 84.1277 108.505 84.1509C108.488 84.1609 108.473 84.1742 108.46 84.1901C108.411 84.2493 108.344 84.2922 108.27 84.3133C108.226 84.321 108.182 84.3201 108.138 84.3105C108.095 84.3009 108.054 84.2828 108.018 84.2573C107.98 84.2345 107.948 84.2035 107.924 84.1667C107.9 84.1299 107.884 84.0881 107.878 84.0445C107.861 83.9572 107.879 83.8665 107.928 83.7925C107.928 83.7925 107.962 83.7645 107.973 83.7477C106.539 83.2907 105.013 83.2078 103.538 83.5069C98.8899 84.4085 96.1179 88.3061 96.9635 92.6741C97.8091 97.0421 101.841 99.6237 106.484 98.7221C111.126 97.8205 113.909 93.9453 113.058 89.5549C112.849 88.36 112.351 87.2341 111.609 86.2749C110.866 85.3156 109.901 84.552 108.796 84.0501ZM105.929 95.8101C104.681 96.0522 103.387 95.7885 102.334 95.077C101.28 94.3655 100.552 93.2644 100.31 92.0161C100.067 90.7678 100.331 89.4744 101.043 88.4205C101.754 87.3667 102.855 86.6386 104.104 86.3965C104.732 86.2733 105.379 86.2733 106.008 86.3965C106.008 86.3181 106.058 86.2397 106.086 86.1725C106.114 86.0964 106.168 86.0329 106.239 85.9938C106.31 85.9547 106.393 85.9426 106.472 85.9597C106.535 85.9707 106.592 86.0009 106.636 86.0461C106.68 86.0913 106.709 86.1492 106.719 86.2117L106.915 86.1613C106.96 86.0213 107.004 85.8869 107.044 85.7469C107.083 85.6069 107.088 85.5845 107.105 85.5061C107.117 85.4676 107.126 85.4283 107.133 85.3885V85.3493L107.167 85.1477V85.0749C107.133 84.8509 107.368 84.5821 107.609 84.6997L108.276 85.0189C108.358 85.0516 108.424 85.1144 108.462 85.1945C108.499 85.2747 108.505 85.3661 108.477 85.4501C108.438 85.5336 108.404 85.6197 108.376 85.7077C108.376 85.7357 108.376 85.7693 108.348 85.7973C108.348 85.7973 108.348 85.7973 108.348 85.8365C108.337 85.9707 108.337 86.1055 108.348 86.2397C108.36 86.5581 108.342 86.8769 108.292 87.1917C108.308 87.228 108.316 87.267 108.316 87.3065C108.316 87.346 108.308 87.385 108.292 87.4213C108.281 87.4596 108.26 87.4943 108.231 87.5221C108.963 88.2467 109.454 89.1795 109.636 90.1933C109.789 90.8072 109.813 91.4461 109.707 92.0697C109.6 92.6932 109.365 93.2878 109.016 93.8158C108.668 94.3438 108.213 94.7937 107.682 95.137C107.151 95.4803 106.554 95.7095 105.929 95.8101Z" fill="#0A0A0A"/>
<path d="M128.05 84.9798C128.031 84.9773 128.012 84.9773 127.994 84.9798C127.86 84.9325 127.736 84.8603 127.63 84.767C127.579 84.8538 127.521 84.9363 127.456 85.0134C127.404 85.0843 127.328 85.133 127.241 85.1497C127.155 85.1663 127.066 85.1496 126.991 85.103C126.918 85.053 126.867 84.9761 126.851 84.889C126.834 84.802 126.852 84.7118 126.902 84.6382C127.232 84.1875 127.441 83.6589 127.506 83.1038C126.386 80.8302 123.861 79.839 120.574 80.4774L114.206 81.7094L117.04 96.4038L120.445 95.743L119.65 91.6438L122.78 91.039L126.414 94.5838L130.071 93.8782L125.854 89.7902C126.649 89.2888 127.279 88.5667 127.669 87.7123C128.059 86.8578 128.191 85.9082 128.05 84.9798ZM121.918 88.3958L119.118 88.9558L118.16 83.8038L120.96 83.2438C123.043 82.8406 124.275 83.5854 124.589 85.2038C124.902 86.8222 123.995 87.9926 121.918 88.3958Z" fill="#0A0A0A"/>
<path d="M98.4321 173.97H122.367C123.017 173.97 123.661 174.098 124.262 174.347C124.863 174.596 125.409 174.961 125.869 175.422C126.329 175.882 126.693 176.428 126.942 177.03C127.19 177.631 127.318 178.275 127.317 178.926V187.326C127.318 187.976 127.19 188.621 126.942 189.222C126.693 189.823 126.329 190.37 125.869 190.83C125.409 191.29 124.863 191.655 124.262 191.904C123.661 192.154 123.017 192.282 122.367 192.282H106.463L99.1825 200.066L103.103 192.282H98.4097C97.0953 192.282 95.8347 191.76 94.9053 190.83C93.9759 189.901 93.4537 188.64 93.4537 187.326V178.926C93.4537 178.273 93.5827 177.627 93.8331 177.024C94.0836 176.421 94.4506 175.874 94.9132 175.413C95.3758 174.953 95.9248 174.588 96.5287 174.341C97.1326 174.093 97.7794 173.967 98.4321 173.97Z" fill="#0A0A0A"/>
<path opacity="0.7" d="M98.4321 173.97H122.367C123.017 173.97 123.661 174.098 124.262 174.347C124.863 174.596 125.409 174.961 125.869 175.422C126.329 175.882 126.693 176.428 126.942 177.03C127.19 177.631 127.318 178.275 127.317 178.926V187.326C127.318 187.976 127.19 188.621 126.942 189.222C126.693 189.823 126.329 190.37 125.869 190.83C125.409 191.29 124.863 191.655 124.262 191.904C123.661 192.154 123.017 192.282 122.367 192.282H106.463L99.1825 200.066L103.103 192.282H98.4097C97.0953 192.282 95.8347 191.76 94.9053 190.83C93.9759 189.901 93.4537 188.64 93.4537 187.326V178.926C93.4537 178.273 93.5827 177.627 93.8331 177.024C94.0836 176.421 94.4506 175.874 94.9132 175.413C95.3758 174.953 95.9248 174.588 96.5287 174.341C97.1326 174.093 97.7794 173.967 98.4321 173.97Z" fill="white"/>
<path d="M99.6028 182.661C99.5816 182.096 99.7297 181.537 100.028 181.056C100.327 180.576 100.762 180.195 101.278 179.964C101.795 179.732 102.368 179.661 102.926 179.757C103.483 179.854 103.999 180.115 104.407 180.507C104.815 180.899 105.096 181.404 105.216 181.957C105.335 182.51 105.286 183.086 105.075 183.611C104.865 184.136 104.502 184.587 104.034 184.904C103.566 185.222 103.013 185.392 102.448 185.394C102.079 185.412 101.71 185.355 101.364 185.226C101.018 185.096 100.702 184.897 100.435 184.641C100.169 184.385 99.9577 184.078 99.8145 183.737C99.6713 183.397 99.5993 183.03 99.6028 182.661ZM104.514 182.661C104.518 182.249 104.4 181.844 104.174 181.5C103.948 181.155 103.624 180.885 103.244 180.725C102.865 180.564 102.446 180.521 102.041 180.599C101.636 180.678 101.264 180.875 100.971 181.166C100.679 181.456 100.48 181.828 100.399 182.232C100.318 182.636 100.36 183.056 100.518 183.436C100.676 183.817 100.944 184.142 101.288 184.37C101.632 184.598 102.035 184.718 102.448 184.716C102.72 184.725 102.992 184.677 103.246 184.577C103.499 184.477 103.73 184.326 103.924 184.134C104.117 183.941 104.269 183.712 104.371 183.458C104.472 183.205 104.521 182.934 104.514 182.661Z" fill="#0A0A0A"/>
<path d="M105.963 183.311C105.952 182.892 106.066 182.48 106.29 182.127C106.514 181.774 106.838 181.495 107.221 181.327C107.604 181.159 108.029 181.108 108.44 181.182C108.852 181.256 109.232 181.451 109.533 181.742C109.833 182.033 110.04 182.407 110.128 182.816C110.215 183.225 110.178 183.651 110.022 184.039C109.866 184.427 109.598 184.76 109.253 184.996C108.907 185.231 108.499 185.358 108.08 185.36C107.804 185.374 107.528 185.331 107.27 185.234C107.011 185.137 106.775 184.987 106.577 184.795C106.378 184.603 106.221 184.372 106.116 184.117C106.01 183.861 105.958 183.587 105.963 183.311ZM109.43 183.311C109.442 183.124 109.415 182.937 109.352 182.761C109.289 182.586 109.191 182.425 109.063 182.288C108.935 182.152 108.781 182.044 108.609 181.969C108.438 181.895 108.253 181.857 108.066 181.857C107.879 181.857 107.695 181.895 107.523 181.969C107.352 182.044 107.197 182.152 107.07 182.288C106.942 182.425 106.843 182.586 106.78 182.761C106.717 182.937 106.691 183.124 106.703 183.311C106.691 183.497 106.717 183.684 106.78 183.86C106.843 184.036 106.942 184.197 107.07 184.333C107.197 184.469 107.352 184.578 107.523 184.652C107.695 184.726 107.879 184.764 108.066 184.764C108.253 184.764 108.438 184.726 108.609 184.652C108.781 184.578 108.935 184.469 109.063 184.333C109.191 184.197 109.289 184.036 109.352 183.86C109.415 183.684 109.442 183.497 109.43 183.311Z" fill="#0A0A0A"/>
<path d="M115.362 183.31C115.377 183.584 115.334 183.858 115.237 184.114C115.14 184.371 114.991 184.604 114.798 184.799C114.606 184.994 114.375 185.147 114.12 185.247C113.865 185.348 113.591 185.394 113.318 185.382C113.047 185.391 112.778 185.335 112.533 185.22C112.288 185.106 112.073 184.935 111.906 184.722V186.816H111.173V181.289H111.873V181.933C112.041 181.711 112.26 181.533 112.511 181.414C112.763 181.295 113.04 181.238 113.318 181.25C113.59 181.238 113.863 181.284 114.117 181.384C114.371 181.484 114.602 181.635 114.794 181.829C114.986 182.023 115.136 182.255 115.234 182.51C115.332 182.765 115.375 183.038 115.362 183.31ZM114.622 183.31C114.609 183.045 114.519 182.789 114.362 182.574C114.204 182.359 113.988 182.196 113.739 182.103C113.49 182.01 113.219 181.992 112.959 182.051C112.7 182.111 112.464 182.245 112.28 182.437C112.096 182.629 111.973 182.871 111.925 183.132C111.877 183.394 111.907 183.664 112.01 183.909C112.114 184.154 112.288 184.363 112.509 184.51C112.73 184.658 112.99 184.737 113.256 184.738C113.443 184.744 113.629 184.711 113.802 184.641C113.975 184.57 114.132 184.464 114.261 184.33C114.391 184.195 114.491 184.035 114.556 183.86C114.62 183.684 114.646 183.497 114.634 183.31H114.622Z" fill="#0A0A0A"/>
<path d="M115.876 184.906L116.178 184.346C116.603 184.617 117.097 184.761 117.6 184.761C118.278 184.761 118.558 184.559 118.558 184.201C118.558 183.294 116.004 184.083 116.004 182.47C116.004 181.748 116.654 181.255 117.684 181.255C118.199 181.247 118.707 181.375 119.157 181.625L118.844 182.185C118.495 181.967 118.09 181.856 117.679 181.866C117.035 181.866 116.721 182.101 116.721 182.426C116.721 183.378 119.286 182.599 119.286 184.173C119.286 184.901 118.614 185.371 117.539 185.371C116.95 185.389 116.37 185.227 115.876 184.906Z" fill="#0A0A0A"/>
<path d="M120.043 184.89C120.043 184.824 120.056 184.76 120.081 184.699C120.107 184.639 120.144 184.585 120.191 184.539C120.238 184.494 120.294 184.458 120.355 184.435C120.416 184.411 120.481 184.4 120.547 184.403C120.611 184.401 120.675 184.413 120.735 184.437C120.795 184.461 120.849 184.496 120.895 184.542C120.94 184.588 120.976 184.642 121 184.702C121.024 184.761 121.036 184.825 121.034 184.89C121.035 184.954 121.023 185.018 120.999 185.078C120.974 185.138 120.939 185.192 120.893 185.238C120.848 185.284 120.794 185.32 120.735 185.345C120.675 185.37 120.611 185.383 120.547 185.383C120.481 185.384 120.416 185.373 120.355 185.348C120.294 185.324 120.238 185.288 120.191 185.242C120.144 185.196 120.107 185.142 120.081 185.081C120.056 185.021 120.043 184.956 120.043 184.89ZM120.11 179.995H120.961L120.816 183.647H120.256L120.11 179.995Z" fill="#0A0A0A"/>
<path d="M238 86.6765C238 88.5021 228.015 90.0701 213.713 90.7589L212.565 90.8149L211.019 90.8765C208.875 90.9605 206.646 91.0221 204.35 91.0725H203.319H202.759C200.995 91.1005 199.192 91.1117 197.361 91.1117C194.046 91.1117 190.826 91.0669 187.74 90.9885L185.5 90.9157C179.872 90.7309 174.765 90.4117 170.464 89.9973C162.025 89.1797 156.699 87.9869 156.699 86.6373C156.699 84.6269 168.795 82.9357 185.433 82.3757L186.738 82.3309C187.899 82.2973 189.077 82.2693 190.271 82.2469C191.711 82.2189 193.178 82.2021 194.662 82.1909H197.367C201.555 82.1909 205.599 82.2581 209.401 82.3925L211.204 82.4541L213.551 82.5549L214.161 82.5885L215.723 82.6669C228.9 83.4397 238 84.9349 238 86.6765Z" fill="#263238"/>
<path opacity="0.4" d="M238 86.6767C238 88.5023 228.015 90.0703 213.713 90.7591L212.565 90.8151L211.019 90.8767C208.875 90.9607 206.646 91.0223 204.35 91.0727H203.319H202.759C200.995 91.1007 199.192 91.1119 197.361 91.1119C194.046 91.1119 190.826 91.0671 187.74 90.9887L185.5 90.9159C179.872 90.7311 174.765 90.4119 170.464 89.9975C162.025 89.1799 156.699 87.9871 156.699 86.6375C156.699 86.0439 157.758 85.4727 159.679 84.9575C163.226 85.7887 166.832 86.3503 170.464 86.6375C174.765 87.0519 179.872 87.3711 185.5 87.5559L187.74 87.6287C190.826 87.7071 194.046 87.7519 197.361 87.7519C199.192 87.7519 200.995 87.7519 202.759 87.7127H203.319H204.35C206.646 87.6623 208.875 87.6007 211.019 87.5167L212.565 87.4551L213.713 87.3991C223.362 86.9343 231.039 86.0719 235.021 84.9967C236.914 85.5175 238 86.0775 238 86.6767Z" fill="white"/>
<path d="M194.6 82.2301C194.559 82.8973 194.309 83.5344 193.883 84.0501C193.419 84.6101 193.021 85.0357 192.567 85.5005C192.299 85.7749 192.007 86.0605 191.755 86.3069C191.576 86.4917 191.391 86.6653 191.195 86.8333C190.247 87.7093 189.244 88.5248 188.194 89.2749L188.009 89.4037L187.522 89.7285C186.851 90.1771 186.151 90.5812 185.427 90.9381C185.159 91.0725 184.867 91.2013 184.599 91.3245C183.928 91.6068 183.237 91.8389 182.532 92.0189C181.905 92.1869 181.306 92.3325 180.712 92.4557C179.878 92.6405 179.032 92.8085 178.231 92.9597C176.703 93.2565 175.179 93.5197 173.645 93.7437C172.34 93.9397 171.035 94.1245 169.725 94.3037C168.672 94.4325 167.619 94.5445 166.555 94.6341C166.438 94.6482 166.32 94.6482 166.203 94.6341C165.848 94.5857 165.52 94.4178 165.274 94.1582C165.028 93.8986 164.877 93.5628 164.847 93.2061C164.842 93.1353 164.842 93.0642 164.847 92.9933C164.862 92.6835 164.968 92.3849 165.152 92.1356C165.337 91.8863 165.591 91.6975 165.883 91.5933L166.018 91.5485C167.468 91.0277 168.924 90.5349 170.386 90.0589L172.598 89.3421C174.838 88.6141 177.078 87.9309 179.256 87.2085C179.816 87.0293 180.337 86.8445 180.835 86.6485C181.265 86.5063 181.678 86.3185 182.067 86.0885C182.319 85.9429 182.571 85.7805 182.829 85.6069C183.394 85.2275 183.938 84.8181 184.459 84.3805C185.198 83.7701 185.937 83.0981 186.659 82.3981C187.82 82.3645 188.998 82.3365 190.193 82.3141C191.649 82.2581 193.116 82.2413 194.6 82.2301Z" fill="#FFB573"/>
<path d="M194.667 84.4925C194.628 84.6101 194.583 84.7221 194.538 84.8341C194.493 84.9461 194.443 85.0581 194.387 85.1701C194.338 85.2799 194.282 85.3865 194.219 85.4893L194.034 85.8085V85.8365C193.907 86.0343 193.773 86.221 193.631 86.3965C193.48 86.5925 193.323 86.7829 193.155 86.9565L192.998 87.1301C192.754 87.3907 192.496 87.6374 192.225 87.8693C192.136 87.9533 192.041 88.0317 191.945 88.1045C191.913 88.1375 191.877 88.1675 191.839 88.1941C190.999 88.864 190.1 89.4545 189.151 89.9581L188.809 90.1317L188.473 90.2997L188.345 90.3557L187.936 89.9973L187.589 89.6837L186.805 88.9893L182.885 85.5341L182.588 85.2709C182.588 85.2709 183.786 83.9325 185.388 82.3701L186.693 82.3253C187.854 82.2917 189.031 82.2637 190.226 82.2413C191.665 82.2133 193.133 82.1965 194.617 82.1853H194.941C195.022 82.9652 194.928 83.7532 194.667 84.4925Z" fill="#0A0A0A"/>
<path opacity="0.7" d="M194.673 84.4925C194.634 84.6086 194.589 84.7226 194.538 84.8341C194.493 84.9461 194.443 85.0581 194.387 85.1701C194.338 85.2799 194.282 85.3865 194.219 85.4893L194.034 85.8085V85.8365C193.907 86.0343 193.773 86.221 193.631 86.3965C193.48 86.5925 193.323 86.7829 193.155 86.9565L192.998 87.1301C192.754 87.3907 192.496 87.6374 192.225 87.8693C192.136 87.9533 192.041 88.0317 191.945 88.1045C191.913 88.1375 191.877 88.1675 191.839 88.1941C190.999 88.864 190.1 89.4545 189.151 89.9581L188.809 90.1317L188.473 90.2997L188.345 90.3557L187.936 89.9973L187.589 89.6837L186.805 88.9893L182.885 85.5341L182.588 85.2709C182.588 85.2709 183.786 83.9325 185.388 82.3701L186.693 82.3253C187.854 82.2917 189.031 82.2637 190.226 82.2413C191.665 82.2133 193.133 82.1965 194.617 82.1853H194.947C195.027 82.9652 194.934 83.7532 194.673 84.4925Z" fill="white"/>
<path opacity="0.1" d="M191.8 88.2334C190.722 89.0952 189.543 89.823 188.289 90.4006L186.749 89.0398C187.558 86.6374 189.015 84.5055 190.96 82.8798C191.66 84.179 191.884 86.895 191.8 88.2334Z" fill="black"/>
<path d="M166.477 91.5764L161.281 90.7812L161.32 95.3845C161.32 95.3845 164.881 96.454 166.769 94.0348L166.477 91.5764Z" fill="#EBB376"/>
<path d="M157.735 92.0245L158.592 95.4461L161.314 95.3845L161.274 90.7812L157.735 92.0245Z" fill="#EBB376"/>
<path d="M213.489 82.5828C213.444 82.7004 213.394 82.818 213.349 82.9412C213.214 83.2828 213.086 83.63 212.962 83.9772C212.884 84.19 212.811 84.4028 212.738 84.6212C212.666 84.8396 212.587 85.058 212.52 85.2764C212.313 85.926 212.111 86.5812 211.915 87.2476C211.908 87.2837 211.899 87.3193 211.887 87.354C211.674 88.0932 211.484 88.8492 211.299 89.594V89.6836C211.204 90.0756 211.103 90.4676 211.014 90.8652C210.969 91.0444 210.93 91.218 210.89 91.3972C210.739 92.086 210.594 92.7804 210.459 93.4692C210.409 93.7268 210.358 93.9844 210.314 94.2364C210.269 94.4884 210.207 94.7964 210.162 95.0372C210.162 95.0932 210.162 95.1492 210.134 95.2052C210.106 95.3508 210.078 95.4964 210.056 95.642C209.983 96.0508 209.916 96.454 209.849 96.8516C209.849 96.9132 209.849 96.9692 209.821 97.0308L209.754 97.4508C209.619 98.2684 209.502 99.0692 209.395 99.8476C209.392 99.8924 209.392 99.9372 209.395 99.982C209.278 100.839 209.177 101.662 209.087 102.463C209.048 102.793 209.009 103.118 208.975 103.437C208.925 103.885 208.88 104.316 208.841 104.736C208.807 105.044 208.779 105.347 208.751 105.638C208.723 105.929 208.701 106.198 208.678 106.439C208.656 106.68 208.634 106.954 208.611 107.195C208.555 107.878 208.51 108.494 208.471 109.026C208.471 109.261 208.443 109.474 208.426 109.676C208.382 110.42 208.359 110.941 208.348 111.176C208.348 111.272 208.348 111.322 208.348 111.322L198.419 110.409H198.274L196.594 110.252L194.068 110.017L190.96 109.76L190.226 109.692L186.514 109.351C186.514 108.998 186.48 108.656 186.474 108.309C186.474 108.214 186.474 108.119 186.474 108.024C186.368 104.966 186.424 102.16 186.586 99.6236C186.676 98.2945 186.792 97.0308 186.934 95.8324C187.135 94.1076 187.387 92.5228 187.673 91.0612C187.734 90.7308 187.802 90.406 187.869 90.0924C187.914 89.874 187.958 89.6668 188.009 89.4596C188.384 87.7789 188.848 86.119 189.398 84.4868C189.666 83.7028 189.958 82.9916 190.198 82.3476C191.638 82.3196 193.105 82.3028 194.589 82.2916H197.294C201.482 82.2916 205.526 82.3588 209.328 82.4932L211.131 82.5548L213.489 82.5828Z" fill="#0A0A0A"/>
<path opacity="0.7" d="M213.489 82.5828C213.444 82.7004 213.394 82.818 213.349 82.9412C213.214 83.2828 213.086 83.63 212.962 83.9772C212.884 84.19 212.811 84.4028 212.738 84.6212C212.666 84.8396 212.587 85.058 212.52 85.2764V85.3156C212.313 85.954 212.122 86.5924 211.932 87.2476C211.925 87.2837 211.916 87.3193 211.904 87.354C211.635 88.306 211.383 89.2748 211.148 90.2492C211.098 90.4564 211.053 90.6692 211.008 90.8764C210.963 91.0836 210.924 91.2292 210.885 91.4084C210.734 92.0972 210.588 92.7916 210.454 93.4804C210.398 93.738 210.347 93.9956 210.302 94.2532C210.252 94.5164 210.202 94.7852 210.157 95.0484C210.157 95.1044 210.157 95.166 210.123 95.222C210.095 95.3676 210.067 95.5132 210.045 95.6588C209.972 96.0676 209.905 96.4708 209.838 96.8684C209.838 96.93 209.838 96.986 209.81 97.0476L209.742 97.4676C209.614 98.2852 209.49 99.086 209.384 99.8644C209.381 99.9092 209.381 99.954 209.384 99.9988C209.266 100.856 209.166 101.679 209.076 102.48C209.037 102.81 208.998 103.135 208.964 103.454C208.914 103.902 208.869 104.333 208.83 104.753C208.796 105.061 208.768 105.364 208.74 105.655C208.712 105.946 208.69 106.215 208.667 106.456C208.645 106.696 208.622 106.971 208.6 107.212C208.544 107.895 208.499 108.511 208.46 109.043C208.46 109.278 208.432 109.491 208.415 109.692C208.37 110.437 208.348 110.958 208.337 111.193C208.337 111.288 208.337 111.339 208.337 111.339L198.408 110.426H198.262L196.582 110.269L194.057 110.034L190.96 109.76L190.226 109.692L186.514 109.351C186.514 108.998 186.48 108.656 186.474 108.309C186.474 108.214 186.474 108.119 186.474 108.024C186.368 104.966 186.424 102.16 186.586 99.6236C186.676 98.2945 186.792 97.0308 186.934 95.8324C187.135 94.1076 187.387 92.5228 187.673 91.0612C187.734 90.7308 187.802 90.406 187.869 90.0924C187.914 89.874 187.958 89.6668 188.009 89.4596C188.384 87.7789 188.848 86.119 189.398 84.4868C189.666 83.7028 189.958 82.9916 190.198 82.3476C191.638 82.3196 193.105 82.3028 194.589 82.2916H197.294C201.482 82.2916 205.526 82.3588 209.328 82.4932L211.131 82.5548L213.489 82.5828Z" fill="white"/>
<path d="M159.88 156.912C159.88 156.912 166.88 154 167.12 151.116C167.123 151.047 167.14 150.979 167.17 150.917C167.2 150.854 167.243 150.799 167.296 150.754C167.348 150.71 167.41 150.676 167.476 150.657C167.542 150.637 167.612 150.631 167.68 150.64L173.023 150.964C173.149 150.975 173.27 151.019 173.373 151.092C173.476 151.165 173.558 151.264 173.611 151.379L175.75 156.324L174.266 156.525L173.644 155.848L173.084 156.688C165.043 157.808 161.56 158.172 159.902 157.892C159.6 157.214 159.88 156.912 159.88 156.912Z" fill="black"/>
<path d="M192.69 127.831C192.382 127.764 192.214 127.713 192.214 127.713L167.014 124.566L174.507 151.25L166.88 151.978C166.88 151.978 149.475 118.406 156.587 113.562C163.699 108.718 185.752 114.066 185.752 114.066L186.62 107.419L208.544 109.054C212.066 130.967 195.714 128.464 192.69 127.831Z" fill="#263238"/>
<path d="M185.427 204.921C185.427 204.921 192.976 204.198 194.045 201.488C194.068 201.424 194.103 201.366 194.148 201.317C194.193 201.267 194.248 201.227 194.31 201.2C194.371 201.172 194.437 201.157 194.504 201.155C194.571 201.154 194.638 201.166 194.701 201.191L199.741 203.061C199.857 203.107 199.959 203.184 200.037 203.282C200.115 203.38 200.165 203.497 200.183 203.621L200.788 208.975L199.309 208.734L198.906 207.905L198.145 208.549C190.137 207.256 186.687 206.612 185.186 205.856C185.046 205.117 185.427 204.921 185.427 204.921Z" fill="black"/>
<path d="M208.763 116.995C208.729 117.129 207.817 121.329 206.624 127.349C206.557 127.691 206.489 128.049 206.417 128.402C205.857 131.264 205.241 134.484 204.636 137.838C203.897 141.921 203.163 146.238 202.547 150.309C201.712 155.409 201.168 160.553 200.917 165.715C200.626 178.69 200.083 204.293 200.083 204.293L193.1 203.173C193.1 203.173 189.241 175.868 189.286 162.646C189.32 154.246 191.403 136.937 192.825 126.173C193.542 120.652 194.091 116.844 194.091 116.844L202.004 116.917L208.763 116.995Z" fill="#263238"/>
<path d="M208.214 111.188L208.679 111.227L208.657 109.709L208.248 109.681L208.214 111.188Z" fill="#263238"/>
<path d="M190.977 109.849L200.329 110.577L200.374 109.071L191.056 108.354L190.977 109.849Z" fill="#263238"/>
<path d="M190.333 108.298L186.379 107.99L186.239 109.48L190.243 109.793L190.333 108.298Z" fill="#263238"/>
<path d="M207.525 109.625L201.091 109.127L201.063 110.633L207.475 111.131L207.525 109.625Z" fill="#263238"/>
<g opacity="0.2">
<path d="M208.213 111.188L208.678 111.227L208.656 109.709L208.247 109.681L208.213 111.188Z" fill="white"/>
<path d="M190.978 109.849L200.33 110.577L200.374 109.071L191.056 108.354L190.978 109.849Z" fill="white"/>
<path d="M190.333 108.298L186.38 107.99L186.24 109.48L190.244 109.794L190.333 108.298Z" fill="white"/>
<path d="M207.525 109.625L201.091 109.127L201.063 110.633L207.475 111.132L207.525 109.625Z" fill="white"/>
</g>
<path d="M196.47 110.477H196.425L194.095 110.258C193.974 110.248 193.86 110.191 193.78 110.099C193.699 110.007 193.658 109.887 193.664 109.765L193.698 108.853C193.7 108.788 193.715 108.725 193.743 108.667C193.771 108.609 193.811 108.558 193.86 108.517C193.907 108.473 193.963 108.44 194.024 108.419C194.085 108.399 194.149 108.392 194.213 108.399L196.531 108.578C196.653 108.587 196.767 108.642 196.848 108.733C196.93 108.824 196.973 108.943 196.968 109.065V110.017C196.967 110.082 196.953 110.146 196.926 110.205C196.899 110.264 196.86 110.316 196.811 110.359C196.717 110.44 196.595 110.483 196.47 110.477ZM194.174 108.797C194.159 108.791 194.143 108.791 194.129 108.797C194.125 108.804 194.124 108.813 194.124 108.822C194.124 108.83 194.125 108.839 194.129 108.847L194.09 109.76C194.089 109.769 194.09 109.778 194.093 109.787C194.096 109.796 194.101 109.804 194.107 109.811C194.114 109.818 194.121 109.823 194.13 109.827C194.138 109.831 194.148 109.833 194.157 109.833L196.487 110.051C196.495 110.055 196.505 110.057 196.515 110.057C196.524 110.057 196.534 110.055 196.543 110.051C196.549 110.035 196.549 110.017 196.543 110.001V109.049C196.543 109.03 196.536 109.012 196.523 108.999C196.511 108.985 196.494 108.977 196.475 108.976L194.157 108.797H194.174Z" fill="white"/>
<path d="M196.437 109.703L195.726 109.636C195.672 109.631 195.622 109.604 195.588 109.562C195.553 109.52 195.536 109.466 195.541 109.412C195.547 109.36 195.573 109.312 195.614 109.278C195.654 109.245 195.707 109.228 195.759 109.233L196.471 109.3C196.524 109.3 196.575 109.322 196.613 109.359C196.651 109.397 196.672 109.448 196.672 109.502C196.672 109.555 196.651 109.607 196.613 109.644C196.575 109.682 196.524 109.703 196.471 109.703H196.437Z" fill="white"/>
<path opacity="0.1" d="M211.888 87.3596C211.619 88.3116 211.367 89.2804 211.132 90.2548C211.042 90.6412 210.953 91.0276 210.869 91.414C210.449 93.3124 210.09 95.2164 209.794 97.0532L209.726 97.4732C205.879 98.7108 201.886 97.8596 202.015 94.1524C202.2 89.1852 206.434 86.8724 206.434 86.8724C208.321 85.8364 210.298 86.2396 211.888 87.3596Z" fill="black"/>
<path d="M174.251 229.605H179.431L162.586 96.493H157.406L174.251 229.605Z" fill="#263238"/>
<path opacity="0.4" d="M174.251 229.605H179.431L162.586 96.493H157.406L174.251 229.605Z" fill="white"/>
<path d="M163.42 116.222H179.889C180.095 116.211 180.292 116.142 180.46 116.023C180.627 115.904 180.758 115.74 180.836 115.55L181.883 113.31H161.426L162.473 115.55C162.551 115.74 162.682 115.904 162.849 116.023C163.017 116.142 163.215 116.211 163.42 116.222Z" fill="#263238"/>
<path opacity="0.4" d="M163.42 116.222H179.889C180.095 116.211 180.292 116.142 180.46 116.023C180.627 115.904 180.758 115.74 180.836 115.55L181.883 113.31H161.426L162.473 115.55C162.551 115.74 162.682 115.904 162.849 116.023C163.017 116.142 163.215 116.211 163.42 116.222Z" fill="white"/>
<path d="M161.7 114.385H181.603C182.193 114.385 182.672 113.906 182.672 113.316V113.075C182.672 112.484 182.193 112.005 181.603 112.005H161.7C161.11 112.005 160.631 112.484 160.631 113.075V113.316C160.631 113.906 161.11 114.385 161.7 114.385Z" fill="#263238"/>
<path opacity="0.1" d="M161.7 114.385H181.603C182.193 114.385 182.672 113.906 182.672 113.316V113.075C182.672 112.484 182.193 112.005 181.603 112.005H161.7C161.11 112.005 160.631 112.484 160.631 113.075V113.316C160.631 113.906 161.11 114.385 161.7 114.385Z" fill="white"/>
<path d="M166.425 135.251H182.889C183.096 135.241 183.294 135.171 183.462 135.051C183.63 134.931 183.76 134.765 183.836 134.573L184.883 132.361H164.432L165.473 134.573C165.551 134.766 165.681 134.932 165.85 135.052C166.019 135.172 166.219 135.241 166.425 135.251Z" fill="#263238"/>
<path opacity="0.4" d="M166.425 135.251H182.889C183.096 135.241 183.294 135.171 183.462 135.051C183.63 134.931 183.76 134.765 183.836 134.573L184.883 132.361H164.432L165.473 134.573C165.551 134.766 165.681 134.932 165.85 135.052C166.019 135.172 166.219 135.241 166.425 135.251Z" fill="white"/>
<path d="M164.707 133.414H184.61C185.201 133.414 185.679 132.935 185.679 132.345V132.104C185.679 131.513 185.201 131.034 184.61 131.034H164.707C164.117 131.034 163.638 131.513 163.638 132.104V132.345C163.638 132.935 164.117 133.414 164.707 133.414Z" fill="#263238"/>
<path opacity="0.1" d="M164.707 133.414H184.61C185.201 133.414 185.679 132.935 185.679 132.345V132.104C185.679 131.513 185.201 131.034 184.61 131.034H164.707C164.117 131.034 163.638 131.513 163.638 132.104V132.345C163.638 132.935 164.117 133.414 164.707 133.414Z" fill="white"/>
<path d="M169.428 160.434H185.92C186.127 160.425 186.326 160.357 186.495 160.238C186.664 160.119 186.795 159.954 186.872 159.762L187.914 157.522H167.44L168.488 159.762C168.564 159.952 168.693 160.117 168.859 160.236C169.026 160.355 169.224 160.424 169.428 160.434Z" fill="#263238"/>
<path opacity="0.4" d="M169.428 160.434H185.92C186.127 160.425 186.326 160.357 186.495 160.238C186.664 160.119 186.795 159.954 186.872 159.762L187.914 157.522H167.44L168.488 159.762C168.564 159.952 168.693 160.117 168.859 160.236C169.026 160.355 169.224 160.424 169.428 160.434Z" fill="white"/>
<path d="M167.709 158.603H187.611C188.202 158.603 188.681 158.124 188.681 157.533V157.292C188.681 156.702 188.202 156.223 187.611 156.223H167.709C167.118 156.223 166.639 156.702 166.639 157.292V157.533C166.639 158.124 167.118 158.603 167.709 158.603Z" fill="#263238"/>
<path opacity="0.1" d="M167.709 158.603H187.611C188.202 158.603 188.681 158.124 188.681 157.533V157.292C188.681 156.702 188.202 156.223 187.611 156.223H167.709C167.118 156.223 166.639 156.702 166.639 157.292V157.533C166.639 158.124 167.118 158.603 167.709 158.603Z" fill="white"/>
<path d="M172.43 185.623H188.899C189.105 185.613 189.303 185.545 189.471 185.426C189.639 185.306 189.769 185.142 189.846 184.951L190.893 182.711H170.436L171.483 184.951C171.56 185.142 171.69 185.306 171.858 185.426C172.026 185.545 172.224 185.613 172.43 185.623Z" fill="#263238"/>
<path opacity="0.4" d="M172.43 185.623H188.899C189.105 185.613 189.303 185.545 189.471 185.426C189.639 185.306 189.769 185.142 189.846 184.951L190.893 182.711H170.436L171.483 184.951C171.56 185.142 171.69 185.306 171.858 185.426C172.026 185.545 172.224 185.613 172.43 185.623Z" fill="white"/>
<path d="M170.71 183.792H190.613C191.203 183.792 191.682 183.313 191.682 182.722V182.481C191.682 181.891 191.203 181.412 190.613 181.412H170.71C170.12 181.412 169.641 181.891 169.641 182.481V182.722C169.641 183.313 170.12 183.792 170.71 183.792Z" fill="#263238"/>
<path opacity="0.1" d="M170.71 183.792H190.613C191.203 183.792 191.682 183.313 191.682 182.722V182.481C191.682 181.891 191.203 181.412 190.613 181.412H170.71C170.12 181.412 169.641 181.891 169.641 182.481V182.722C169.641 183.313 170.12 183.792 170.71 183.792Z" fill="white"/>
<path d="M175.437 210.812H191.901C192.107 210.803 192.305 210.734 192.473 210.615C192.641 210.496 192.771 210.331 192.847 210.14L193.894 207.9H173.438L174.485 210.14C174.562 210.331 174.693 210.497 174.862 210.616C175.031 210.735 175.23 210.803 175.437 210.812Z" fill="#263238"/>
<path opacity="0.4" d="M175.437 210.812H191.901C192.107 210.803 192.305 210.734 192.473 210.615C192.641 210.496 192.771 210.331 192.847 210.14L193.894 207.9H173.438L174.485 210.14C174.562 210.331 174.693 210.497 174.862 210.616C175.031 210.735 175.23 210.803 175.437 210.812Z" fill="white"/>
<path d="M173.713 208.98H193.616C194.206 208.98 194.685 208.502 194.685 207.911V207.67C194.685 207.079 194.206 206.6 193.616 206.6H173.713C173.123 206.6 172.644 207.079 172.644 207.67V207.911C172.644 208.502 173.123 208.98 173.713 208.98Z" fill="#263238"/>
<path opacity="0.1" d="M173.713 208.98H193.616C194.206 208.98 194.685 208.502 194.685 207.911V207.67C194.685 207.079 194.206 206.6 193.616 206.6H173.713C173.123 206.6 172.644 207.079 172.644 207.67V207.911C172.644 208.502 173.123 208.98 173.713 208.98Z" fill="white"/>
<path d="M194.248 229.605H199.428L182.583 96.493H177.403L194.248 229.605Z" fill="#263238"/>
<path opacity="0.7" d="M194.248 229.605H199.428L182.583 96.493H177.403L194.248 229.605Z" fill="white"/>
<path d="M139.866 229.605H134.686L151.525 96.4933H156.705L139.866 229.605Z" fill="#263238"/>
<path opacity="0.4" d="M139.866 229.605H134.686L151.525 96.4933H156.705L139.866 229.605Z" fill="white"/>
<path d="M170.689 116.222H154.225C154.019 116.212 153.82 116.144 153.651 116.025C153.482 115.906 153.351 115.741 153.273 115.55L152.231 113.31H172.682L171.635 115.55C171.558 115.741 171.428 115.906 171.26 116.025C171.093 116.144 170.894 116.212 170.689 116.222Z" fill="#263238"/>
<path opacity="0.5" d="M170.689 116.222H154.225C154.019 116.212 153.82 116.144 153.651 116.025C153.482 115.906 153.351 115.741 153.273 115.55L152.231 113.31H172.682L171.635 115.55C171.558 115.741 171.428 115.906 171.26 116.025C171.093 116.144 170.894 116.212 170.689 116.222Z" fill="white"/>
<path d="M172.408 112.011H152.505C151.914 112.011 151.436 112.49 151.436 113.081V113.321C151.436 113.912 151.914 114.391 152.505 114.391H172.408C172.998 114.391 173.477 113.912 173.477 113.321V113.081C173.477 112.49 172.998 112.011 172.408 112.011Z" fill="#263238"/>
<path opacity="0.2" d="M172.408 112.011H152.505C151.914 112.011 151.436 112.49 151.436 113.081V113.321C151.436 113.912 151.914 114.391 152.505 114.391H172.408C172.998 114.391 173.477 113.912 173.477 113.321V113.081C173.477 112.49 172.998 112.011 172.408 112.011Z" fill="white"/>
<path d="M167.687 135.251H151.201C150.995 135.24 150.796 135.171 150.628 135.05C150.461 134.93 150.331 134.765 150.254 134.573L149.207 132.361H169.681L168.633 134.573C168.557 134.765 168.427 134.93 168.259 135.05C168.092 135.171 167.893 135.24 167.687 135.251Z" fill="#263238"/>
<path opacity="0.5" d="M167.687 135.251H151.201C150.995 135.24 150.796 135.171 150.628 135.05C150.461 134.93 150.331 134.765 150.254 134.573L149.207 132.361H169.681L168.633 134.573C168.557 134.765 168.427 134.93 168.259 135.05C168.092 135.171 167.893 135.24 167.687 135.251Z" fill="white"/>
<path d="M169.406 131.034H149.504C148.913 131.034 148.434 131.513 148.434 132.104V132.345C148.434 132.935 148.913 133.414 149.504 133.414H169.406C169.997 133.414 170.476 132.935 170.476 132.345V132.104C170.476 131.513 169.997 131.034 169.406 131.034Z" fill="#263238"/>
<path opacity="0.2" d="M169.406 131.034H149.504C148.913 131.034 148.434 131.513 148.434 132.104V132.345C148.434 132.935 148.913 133.414 149.504 133.414H169.406C169.997 133.414 170.476 132.935 170.476 132.345V132.104C170.476 131.513 169.997 131.034 169.406 131.034Z" fill="white"/>
<path d="M164.679 160.434H148.215C148.009 160.425 147.81 160.357 147.642 160.237C147.475 160.118 147.345 159.953 147.268 159.762L146.221 157.522H166.672L165.631 159.762C165.553 159.954 165.422 160.119 165.254 160.238C165.085 160.357 164.885 160.425 164.679 160.434Z" fill="#263238"/>
<path opacity="0.5" d="M164.679 160.434H148.215C148.009 160.425 147.81 160.357 147.642 160.237C147.475 160.118 147.345 159.953 147.268 159.762L146.221 157.522H166.672L165.631 159.762C165.553 159.954 165.422 160.119 165.254 160.238C165.085 160.357 164.885 160.425 164.679 160.434Z" fill="white"/>
<path d="M166.399 156.223H146.497C145.906 156.223 145.427 156.702 145.427 157.293V157.533C145.427 158.124 145.906 158.603 146.497 158.603H166.399C166.99 158.603 167.469 158.124 167.469 157.533V157.293C167.469 156.702 166.99 156.223 166.399 156.223Z" fill="#263238"/>
<path opacity="0.2" d="M166.399 156.223H146.497C145.906 156.223 145.427 156.702 145.427 157.293V157.533C145.427 158.124 145.906 158.603 146.497 158.603H166.399C166.99 158.603 167.469 158.124 167.469 157.533V157.293C167.469 156.702 166.99 156.223 166.399 156.223Z" fill="white"/>
<path d="M161.679 185.623H145.215C145.008 185.613 144.809 185.545 144.64 185.426C144.472 185.307 144.341 185.142 144.263 184.951L143.221 182.711H163.672L162.625 184.951C162.549 185.142 162.419 185.307 162.251 185.426C162.083 185.545 161.884 185.614 161.679 185.623Z" fill="#263238"/>
<path opacity="0.5" d="M161.679 185.623H145.215C145.008 185.613 144.809 185.545 144.64 185.426C144.472 185.307 144.341 185.142 144.263 184.951L143.221 182.711H163.672L162.625 184.951C162.549 185.142 162.419 185.307 162.251 185.426C162.083 185.545 161.884 185.614 161.679 185.623Z" fill="white"/>
<path d="M163.397 181.412H143.495C142.904 181.412 142.425 181.891 142.425 182.481V182.722C142.425 183.313 142.904 183.792 143.495 183.792H163.397C163.988 183.792 164.467 183.313 164.467 182.722V182.481C164.467 181.891 163.988 181.412 163.397 181.412Z" fill="#263238"/>
<path opacity="0.2" d="M163.397 181.412H143.495C142.904 181.412 142.425 181.891 142.425 182.481V182.722C142.425 183.313 142.904 183.792 143.495 183.792H163.397C163.988 183.792 164.467 183.313 164.467 182.722V182.481C164.467 181.891 163.988 181.412 163.397 181.412Z" fill="white"/>
<path d="M158.676 210.812H142.206C142.001 210.802 141.802 210.734 141.635 210.614C141.467 210.495 141.337 210.331 141.26 210.14L140.213 207.9H160.669L159.622 210.14C159.546 210.331 159.416 210.496 159.248 210.615C159.08 210.735 158.881 210.803 158.676 210.812Z" fill="#263238"/>
<path opacity="0.5" d="M158.676 210.812H142.206C142.001 210.802 141.802 210.734 141.635 210.614C141.467 210.495 141.337 210.331 141.26 210.14L140.213 207.9H160.669L159.622 210.14C159.546 210.331 159.416 210.496 159.248 210.615C159.08 210.735 158.881 210.803 158.676 210.812Z" fill="white"/>
<path d="M160.396 206.6H140.494C139.903 206.6 139.424 207.079 139.424 207.67V207.911C139.424 208.502 139.903 208.98 140.494 208.98H160.396C160.987 208.98 161.466 208.502 161.466 207.911V207.67C161.466 207.079 160.987 206.6 160.396 206.6Z" fill="#263238"/>
<path opacity="0.2" d="M160.396 206.6H140.494C139.903 206.6 139.424 207.079 139.424 207.67V207.911C139.424 208.502 139.903 208.98 140.494 208.98H160.396C160.987 208.98 161.466 208.502 161.466 207.911V207.67C161.466 207.079 160.987 206.6 160.396 206.6Z" fill="white"/>
<path d="M159.857 229.605H154.677L171.522 96.493H176.702L159.857 229.605Z" fill="#263238"/>
<path opacity="0.7" d="M159.857 229.605H154.677L171.522 96.493H176.702L159.857 229.605Z" fill="white"/>
<path d="M183.412 97.1709H150.584C150.379 97.1598 150.182 97.0908 150.014 96.9719C149.847 96.8529 149.716 96.6889 149.638 96.4989L148.591 94.2589H185.405L184.364 96.4989C184.282 96.6875 184.15 96.8499 183.982 96.9685C183.814 97.087 183.617 97.157 183.412 97.1709Z" fill="#263238"/>
<path opacity="0.5" d="M183.412 97.1709H150.584C150.379 97.1598 150.182 97.0908 150.014 96.9719C149.847 96.8529 149.716 96.6889 149.638 96.4989L148.591 94.2589H185.405L184.364 96.4989C184.282 96.6875 184.15 96.8499 183.982 96.9685C183.814 97.087 183.617 97.157 183.412 97.1709Z" fill="white"/>
<path d="M185.131 92.9597H148.871C148.28 92.9597 147.801 93.4386 147.801 94.0293V94.2701C147.801 94.8608 148.28 95.3397 148.871 95.3397H185.131C185.721 95.3397 186.2 94.8608 186.2 94.2701V94.0293C186.2 93.4386 185.721 92.9597 185.131 92.9597Z" fill="#263238"/>
<path opacity="0.2" d="M185.131 92.9597H148.871C148.28 92.9597 147.801 93.4386 147.801 94.0293V94.2701C147.801 94.8608 148.28 95.3397 148.871 95.3397H185.131C185.721 95.3397 186.2 94.8608 186.2 94.2701V94.0293C186.2 93.4386 185.721 92.9597 185.131 92.9597Z" fill="white"/>
<path d="M185.708 96.6165L181.401 93.5813L179.385 97.7197C179.385 97.7197 182.096 100.262 184.862 98.9405L185.708 96.6165Z" fill="#EBB376"/>
<path d="M177.683 93.1165L176.921 96.5605L179.385 97.7197L181.401 93.5813L177.683 93.1165Z" fill="#EBB376"/>
<path d="M215.146 87.0406C214.301 88.3454 213.438 89.5942 212.537 90.815C211.859 91.7166 211.165 92.607 210.437 93.4806C210.218 93.7494 209.994 94.0126 209.77 94.2758C209.328 94.7854 208.88 95.295 208.409 95.799C207.849 96.4262 207.217 97.0422 206.561 97.647L206.186 97.983C205.697 98.4354 205.183 98.8598 204.646 99.2542C203.847 99.8527 202.971 100.341 202.042 100.705C201.767 100.812 201.484 100.898 201.197 100.962C200.922 101.029 200.687 101.063 200.435 101.108C199.991 101.168 199.544 101.206 199.097 101.22C198.251 101.248 197.461 101.22 196.683 101.181C195.137 101.097 193.648 100.889 192.175 100.671C190.293 100.374 188.445 100.005 186.614 99.551C185.937 99.3942 185.265 99.2206 184.593 99.0414L183.523 98.7446C183.182 98.6448 182.885 98.4317 182.682 98.1405C182.478 97.8494 182.38 97.4975 182.403 97.143C182.411 97.0295 182.429 96.9169 182.459 96.807C182.539 96.516 182.703 96.2549 182.93 96.0559C183.157 95.8569 183.437 95.7286 183.736 95.687C183.831 95.6759 183.926 95.6759 184.021 95.687H184.049H184.441C185.287 95.715 186.121 95.7486 186.978 95.771C188.865 95.8382 190.747 95.8886 192.578 95.9166C193.984 95.9166 195.378 95.9166 196.728 95.8718C197.4 95.8438 198.055 95.7878 198.649 95.7038C199.093 95.6725 199.529 95.5645 199.937 95.3846C200.326 95.161 200.69 94.8963 201.023 94.595C201.359 94.3038 201.712 93.979 202.059 93.6262C202.16 93.531 202.255 93.4302 202.35 93.3294C202.546 93.1278 202.737 92.915 202.91 92.7022C203.392 92.1758 203.857 91.627 204.321 91.0614C204.529 90.8038 204.741 90.5462 204.949 90.283C205.957 89.0118 206.959 87.6734 207.928 86.3238C208.589 85.411 209.238 84.487 209.865 83.5798L209.899 83.5238C210.211 83.0675 210.641 82.7038 211.142 82.471L213.489 82.5718L214.099 82.6054C214.163 82.6405 214.225 82.6798 214.284 82.723C214.961 83.1889 215.43 83.9005 215.591 84.7068C215.752 85.513 215.593 86.3502 215.146 87.0406Z" fill="#FFB573"/>
<path d="M213.685 90.759C212.627 92.2867 211.441 93.7217 210.14 95.0486C209.793 95.407 209.423 95.7766 209.02 96.1686L208.393 95.8158L202.899 92.7246L202.39 92.439C202.39 92.439 202.748 91.879 203.28 91.1006C203.946 90.0926 204.893 88.6534 205.772 87.2982C206.455 86.2342 207.094 85.2206 207.514 84.4982C207.98 83.6979 208.596 82.9945 209.328 82.4262L211.131 82.4878L213.478 82.5886L214.088 82.6222L215.65 82.7006C216.373 84.3694 216.216 87.0182 213.685 90.759Z" fill="#0A0A0A"/>
<path opacity="0.7" d="M213.685 90.759C212.627 92.2867 211.441 93.7217 210.14 95.0486C209.793 95.407 209.423 95.7766 209.02 96.1686L208.393 95.8158L202.899 92.7246L202.39 92.439C202.39 92.439 202.748 91.879 203.28 91.1006C203.946 90.0926 204.893 88.6534 205.772 87.2982C206.455 86.2342 207.094 85.2206 207.514 84.4982C207.98 83.6979 208.596 82.9945 209.328 82.4262L211.131 82.4878L213.478 82.5886L214.088 82.6222L215.65 82.7006C216.373 84.3694 216.216 87.0182 213.685 90.759Z" fill="white"/>
<path d="M131.79 229.51C131.793 229.542 131.793 229.574 131.79 229.606C131.792 229.621 131.792 229.636 131.79 229.65C131.783 229.679 131.774 229.707 131.762 229.734C131.746 229.772 131.725 229.808 131.7 229.841C131.676 229.881 131.648 229.918 131.616 229.953C131.352 230.21 131.04 230.414 130.698 230.552L130.423 230.67C130.155 230.782 129.863 230.888 129.511 230.994C129.298 231.062 129.074 231.123 128.833 231.19C124.913 232.249 117.381 233.1 107.911 233.57L106.791 233.626L104.955 233.705L103.067 233.772L101.763 233.817C100.727 233.845 99.6794 233.873 98.6154 233.89H98.229H97.5066H96.8066C95.8266 233.89 94.8354 233.89 93.8386 233.923H91.1338C87.8634 233.923 84.677 233.884 81.6138 233.8L80.2586 233.755C79.8666 233.755 79.4746 233.755 79.0882 233.722L77.285 233.66L74.9386 233.559L74.3282 233.526L72.7658 233.447C70.1954 233.302 67.7818 233.134 65.5642 232.932C60.2554 232.462 56.0442 231.851 53.4402 231.146L53.2162 231.084L52.9698 231.011C52.5498 230.888 52.1858 230.759 51.8498 230.636C51.7322 230.586 51.6202 230.541 51.5194 230.49C51.3521 230.412 51.1894 230.324 51.0322 230.227C50.9787 230.196 50.9282 230.161 50.881 230.121L50.7578 230.026L50.6402 229.908C50.6088 229.875 50.5807 229.84 50.5562 229.802C50.515 229.742 50.4846 229.676 50.4666 229.606V229.544C50.4638 229.518 50.4638 229.492 50.4666 229.466C50.4666 227.64 60.4514 226.072 74.7538 225.383L75.9018 225.327L77.4474 225.266L79.8218 225.182L81.1042 225.142L84.117 225.07H84.2794H85.1474H85.7354C86.6202 225.07 87.5106 225.07 88.4122 225.042H88.681C89.493 225.042 90.3106 225.042 91.1338 225.042C94.449 225.042 97.669 225.086 100.755 225.165L102.995 225.238L103.947 225.271H104.042L105.083 225.31L105.767 225.339L107.536 225.417L109.216 225.501C112.419 225.674 115.376 225.893 118.042 226.15C126.464 226.985 131.79 228.178 131.79 229.51Z" fill="#263238"/>
<path opacity="0.4" d="M50.4561 229.51C50.4561 227.685 60.4409 226.117 74.7433 225.428L75.8913 225.372L77.4369 225.31C79.5817 225.226 81.8105 225.165 84.1065 225.114H85.1369H85.7249C87.4889 225.086 89.2921 225.075 91.1233 225.075C94.4385 225.075 97.6585 225.12 100.744 225.198L102.984 225.271C108.612 225.456 113.719 225.775 118.02 226.19C126.459 227.007 131.785 228.2 131.785 229.55C131.785 230.143 130.726 230.714 128.806 231.23C125.258 230.398 121.652 229.837 118.02 229.55C113.719 229.135 108.612 228.816 102.984 228.631L100.744 228.558C97.6585 228.48 94.4385 228.435 91.1233 228.435C89.2921 228.435 87.4889 228.435 85.7249 228.474H85.1201H84.0897C81.7937 228.525 79.5649 228.586 77.4201 228.67L75.8745 228.732L74.7265 228.788C65.0777 229.253 57.4001 230.115 53.4465 231.19C51.5201 230.67 50.4561 230.11 50.4561 229.51Z" fill="white"/>
<path d="M87.7016 227.444C87.3936 227.814 87.108 228.133 86.8224 228.441C86.6768 228.592 86.5368 228.743 86.3856 228.894C86.1168 229.169 85.8537 229.454 85.5793 229.701C85.4001 229.88 85.2153 230.054 85.0193 230.227C84.0704 231.105 83.0659 231.92 82.012 232.669L81.8328 232.792C81.6761 232.904 81.5136 233.01 81.3456 233.122C80.9928 233.358 80.6288 233.587 80.2256 233.8C79.8336 233.8 79.4416 233.8 79.0552 233.766L77.252 233.705L74.9056 233.604L74.2952 233.57L72.7329 233.492C70.1625 233.346 67.7489 233.178 65.5312 232.977L66.4048 232.697C68.6448 231.969 70.8848 231.286 73.0688 230.569C73.6288 230.384 74.1496 230.205 74.648 230.009C75.0775 229.867 75.4905 229.679 75.88 229.449C76.1264 229.303 76.384 229.141 76.6416 228.967C76.776 228.878 76.9161 228.782 77.0561 228.676C77.4593 228.39 77.8624 228.071 78.26 227.741C79.0664 227.08 79.856 226.352 80.64 225.596L81.06 225.182C81.312 224.941 81.5585 224.7 81.7993 224.448L82.9193 223.328L82.9864 223.255C83.3242 222.904 83.7384 222.635 84.1968 222.47C84.6552 222.305 85.1455 222.248 85.6297 222.303C86.3359 222.384 86.9937 222.702 87.4953 223.206C87.9969 223.709 88.3125 224.369 88.3904 225.075C88.4398 225.496 88.4043 225.922 88.286 226.329C88.1677 226.736 87.969 227.115 87.7016 227.444Z" fill="#FFB573"/>
<path d="M86.447 221.015C83.3222 220.942 76.367 228.71 76.367 228.71L82.107 233.794C82.107 233.794 87.231 231.554 88.4854 227.886C89.7398 224.218 86.447 221.015 86.447 221.015Z" fill="#0A0A0A"/>
<path opacity="0.7" d="M88.4796 227.886C87.8841 229.374 86.8901 230.668 85.6068 231.627C84.5284 232.489 83.3494 233.217 82.0956 233.794L80.5556 232.428L76.3556 228.71C76.3556 228.71 83.3052 220.942 86.4356 221.015C86.4468 221.015 89.7508 224.196 88.4796 227.886Z" fill="white"/>
<path opacity="0.1" d="M85.6236 231.627C84.5452 232.489 83.3662 233.217 82.1124 233.794L80.5724 232.428C81.3904 230.034 82.8535 227.912 84.8004 226.296C85.4836 227.573 85.7076 230.289 85.6236 231.627Z" fill="black"/>
<path d="M108.029 224.291C107.996 224.364 107.962 224.431 107.934 224.504C107.845 224.7 107.761 224.896 107.677 225.098C107.626 225.201 107.581 225.308 107.542 225.417C107.53 225.438 107.521 225.461 107.514 225.484C107.473 225.567 107.437 225.653 107.408 225.742C107.313 225.966 107.223 226.195 107.133 226.43C107.044 226.666 106.915 227.018 106.809 227.315C106.809 227.315 106.809 227.343 106.809 227.354C106.73 227.567 106.657 227.78 106.585 227.998C106.512 228.217 106.433 228.435 106.366 228.654C106.364 228.676 106.364 228.698 106.366 228.721C106.299 228.922 106.232 229.124 106.17 229.326C106.041 229.751 105.913 230.177 105.789 230.614L105.756 230.731C105.487 231.683 105.235 232.652 105 233.626C104.997 233.647 104.997 233.667 105 233.688L103.113 233.755L101.808 233.8C100.772 233.828 99.7246 233.856 98.6606 233.873H98.2742H97.5518H96.8518C95.8718 233.873 94.8806 233.873 93.8838 233.906H91.179C87.9086 233.906 84.7222 233.867 81.659 233.783L81.743 233.369C81.743 233.279 81.7822 233.195 81.8046 233.111C81.827 233.027 81.8382 232.943 81.8606 232.859C81.872 232.819 81.8813 232.777 81.8886 232.736C82.1387 231.616 82.4001 230.595 82.6726 229.673C82.7734 229.348 82.863 229.04 82.9582 228.732C82.9918 228.637 83.0198 228.542 83.0534 228.446C83.1262 228.217 83.199 227.998 83.2718 227.786L83.3894 227.444C83.451 227.27 83.5126 227.097 83.5742 226.934C83.6358 226.772 83.7142 226.548 83.7814 226.374L83.9662 225.904L84.3022 225.092C84.5598 224.476 84.8118 223.938 85.047 223.462C85.0918 223.384 85.131 223.3 85.1702 223.222L85.4054 222.768L85.6798 222.27C85.6968 222.245 85.7118 222.218 85.7246 222.191C85.8198 222.018 85.915 221.861 85.999 221.726L86.2174 221.379L86.4806 220.998C88.1425 220.839 89.8127 220.785 91.4814 220.836C91.8342 220.836 92.1926 220.864 92.5566 220.886C92.9206 220.909 93.251 220.942 93.6318 220.987C94.4326 221.077 95.3118 221.2 96.247 221.351L98.0054 221.654C98.5934 221.76 99.1758 221.866 99.7358 221.978L100.033 222.04C100.475 222.124 100.906 222.214 101.304 222.298C101.578 222.354 101.864 222.415 102.121 222.482C102.261 222.516 102.396 222.544 102.53 222.583L102.939 222.684C103.449 222.813 103.953 222.953 104.429 223.087L104.893 223.227L105.761 223.496L106.523 223.742C107.391 224.028 107.968 224.241 108.052 224.269L108.029 224.291Z" fill="#0A0A0A"/>
<path opacity="0.7" d="M108.035 224.291C108.002 224.364 107.968 224.431 107.94 224.504C107.851 224.7 107.761 224.896 107.683 225.098C107.63 225.202 107.585 225.309 107.548 225.417C107.546 225.439 107.546 225.462 107.548 225.484C107.507 225.567 107.471 225.653 107.442 225.742C107.347 225.966 107.257 226.195 107.167 226.43C107.078 226.666 106.943 227.018 106.843 227.315C106.843 227.315 106.843 227.343 106.843 227.354C106.764 227.567 106.691 227.78 106.619 227.998C106.546 228.217 106.467 228.435 106.4 228.654V228.693C106.333 228.894 106.266 229.096 106.204 229.298C106.075 229.723 105.947 230.149 105.823 230.586L105.79 230.703C105.521 231.655 105.269 232.624 105.034 233.598C105.031 233.619 105.031 233.64 105.034 233.66L103.147 233.727L101.842 233.772C100.806 233.8 99.7585 233.828 98.6945 233.845H98.3081H97.5857H96.8857C95.9057 233.845 94.9145 233.845 93.9177 233.878H91.2129C87.9425 233.878 84.7561 233.839 81.6929 233.755L81.7769 233.346C81.8161 233.167 81.8497 232.999 81.8889 232.831C81.9003 232.791 81.9097 232.75 81.9169 232.708C82.1671 231.588 82.4284 230.567 82.7009 229.645C82.8017 229.32 82.8913 229.012 82.9865 228.704C83.0201 228.609 83.0481 228.514 83.0817 228.418C83.1545 228.189 83.2273 227.97 83.3001 227.758L83.4177 227.416C83.4793 227.242 83.5409 227.069 83.6025 226.906C83.6641 226.744 83.7425 226.52 83.8097 226.346L83.9945 225.876L84.3305 225.064C84.5881 224.448 84.8401 223.91 85.0697 223.434C85.1145 223.356 85.1537 223.272 85.1929 223.194L85.4281 222.74L85.7025 222.242C85.7195 222.217 85.7345 222.191 85.7473 222.163L86.0217 221.698L86.2401 221.351L86.5033 220.97C88.1652 220.812 89.8354 220.757 91.5041 220.808C91.8569 220.808 92.2153 220.836 92.5793 220.858C92.9433 220.881 93.2737 220.914 93.6545 220.959C94.4553 221.049 95.3345 221.172 96.2697 221.323L98.0281 221.626C98.6161 221.732 99.1985 221.838 99.7585 221.95L100.055 222.012C100.498 222.096 100.929 222.186 101.327 222.27C101.601 222.326 101.887 222.387 102.144 222.454C102.284 222.488 102.419 222.516 102.553 222.555L102.962 222.65C103.471 222.779 103.975 222.919 104.451 223.059L104.916 223.199L105.784 223.468L106.546 223.714C107.414 224 107.991 224.213 108.075 224.241L108.035 224.291Z" fill="white"/>
<path d="M97.904 214.172C97.904 214.172 98.0776 220.13 98.6432 221.015C99.2088 221.9 101.253 222.309 101.253 222.309C101.253 222.309 96.3416 224.75 94.0456 224.291C91.7496 223.832 90.6464 220.836 90.6464 220.836C90.6464 220.836 92.248 220.898 92.64 220.679C93.032 220.461 92.332 216.513 92.332 216.513L97.904 214.172Z" fill="#EBB376"/>
<path opacity="0.2" d="M92.8027 217.997L92.6011 218.282C92.4779 217.358 92.3323 216.513 92.3323 216.513L97.8987 214.172C97.8987 214.172 98.0443 218.971 98.4587 220.595C96.2075 220.83 93.5755 219.162 92.8027 217.997Z" fill="black"/>
<path d="M96.0007 204.165C97.5239 204.96 99.7024 207.525 97.3168 208.382C94.9312 209.238 93.3855 202.804 96.0007 204.165Z" fill="#263238"/>
<path d="M89.2314 214.077C90.4001 215.503 91.6729 216.842 93.0394 218.081C94.0217 218.913 95.2274 219.437 96.5058 219.587C100.986 220.147 103.887 215.376 102.078 211.439C101.868 210.988 101.635 210.549 101.378 210.123C99.4122 206.886 95.6322 203.487 91.8914 204.596C90.9486 204.876 90.0921 205.39 89.4019 206.09C88.7117 206.791 88.2103 207.655 87.9447 208.602C87.679 209.549 87.6577 210.548 87.8827 211.505C88.1077 212.462 88.5718 213.347 89.2314 214.077Z" fill="#EBB376"/>
<path d="M91.0718 213.808L91.279 214.48C91.6725 215.773 92.274 216.993 93.0598 218.092C94.042 218.924 95.2477 219.448 96.5262 219.598C101.006 220.158 103.907 215.387 102.098 211.45C101.889 210.999 101.655 210.56 101.398 210.134C101.398 210.134 101.734 211.714 101.443 212.447C101.443 212.447 99.763 212.016 98.9342 212.705C98.9342 212.705 97.1534 212.218 95.6414 214.105C94.9502 214.557 94.1311 214.772 93.3071 214.719C92.483 214.665 91.6986 214.346 91.0718 213.808Z" fill="#263238"/>
<path opacity="0.5" d="M91.0718 213.808L91.279 214.48C91.6725 215.773 92.274 216.993 93.0598 218.092C94.042 218.924 95.2477 219.448 96.5262 219.598C101.006 220.158 103.907 215.387 102.098 211.45C101.889 210.999 101.655 210.56 101.398 210.134C101.398 210.134 101.734 211.714 101.443 212.447C101.443 212.447 99.763 212.016 98.9342 212.705C98.9342 212.705 97.1534 212.218 95.6414 214.105C94.9502 214.557 94.1311 214.772 93.3071 214.719C92.483 214.665 91.6986 214.346 91.0718 213.808Z" fill="white"/>
<path d="M84.5601 211.982C82.5273 210.274 84.4537 207.805 86.5817 206.942C86.8117 206.851 87.0074 206.691 87.1417 206.483L89.6673 210.364C89.4377 210.47 89.2081 210.577 88.9897 210.661C88.9897 210.661 91.9409 213.27 91.6553 215.869C87.5337 217.034 83.5577 214.911 84.5601 211.982Z" fill="#263238"/>
<path d="M90.1214 217.84C90.5538 218.134 91.0407 218.338 91.5533 218.441C92.0659 218.544 92.5939 218.543 93.1062 218.439C93.2051 218.42 93.3024 218.394 93.3974 218.361C94.2486 217.56 91.7174 214.743 91.5998 214.597C91.329 214.515 91.0436 214.492 90.7632 214.531C90.4828 214.57 90.2141 214.669 89.9758 214.821C89.735 214.999 89.5418 215.233 89.4133 215.503C89.2849 215.773 89.2252 216.071 89.2397 216.37C89.2541 216.668 89.3421 216.959 89.4959 217.215C89.6498 217.472 89.8646 217.686 90.1214 217.84Z" fill="#EBB376"/>
<path d="M94.9533 211.008C95.1605 211.277 95.4741 211.383 95.6533 211.243C95.8325 211.103 95.7989 210.767 95.5861 210.498C95.3733 210.229 95.0597 210.123 94.8861 210.263C94.7125 210.403 94.7405 210.739 94.9533 211.008Z" fill="#263238"/>
<path d="M98 208.583C98.2072 208.852 98.5208 208.958 98.7 208.818C98.8792 208.678 98.8456 208.348 98.6328 208.073C98.42 207.799 98.1064 207.698 97.9328 207.844C97.7592 207.989 97.7704 208.32 98 208.583Z" fill="#263238"/>
<path d="M97.1213 209.49C98.0775 210.023 99.1027 210.42 100.168 210.672C100.033 211.467 99.0477 211.91 99.0477 211.91L97.1213 209.49Z" fill="#D58745"/>
<path d="M93.7507 208.925C93.7194 208.941 93.6934 208.966 93.6756 208.997C93.6578 209.028 93.6489 209.063 93.6499 209.098C93.6543 209.352 93.5988 209.604 93.4879 209.832C93.377 210.061 93.2138 210.26 93.0115 210.414C92.9682 210.445 92.9379 210.491 92.9265 210.542C92.9151 210.594 92.9234 210.648 92.9499 210.694C92.9641 210.717 92.9827 210.736 93.0045 210.752C93.0264 210.767 93.051 210.778 93.077 210.783C93.1031 210.789 93.13 210.79 93.1563 210.785C93.1825 210.78 93.2075 210.77 93.2299 210.756C93.4909 210.562 93.7015 210.308 93.8438 210.016C93.9861 209.723 94.056 209.401 94.0475 209.076C94.0475 209.023 94.0271 208.973 93.9905 208.935C93.9539 208.898 93.904 208.876 93.8515 208.874C93.8137 208.881 93.7787 208.898 93.7507 208.925Z" fill="#263238"/>
<path d="M98.477 206.393C98.5091 206.37 98.5327 206.336 98.5442 206.298C98.5624 206.249 98.5603 206.194 98.5383 206.145C98.5162 206.097 98.4761 206.06 98.4266 206.041C98.1292 205.925 97.8081 205.883 97.491 205.919C97.1739 205.955 96.8704 206.068 96.6066 206.248C96.5716 206.282 96.5503 206.328 96.5467 206.377C96.5431 206.426 96.5573 206.474 96.5868 206.513C96.6163 206.552 96.659 206.579 96.707 206.589C96.7549 206.599 96.8048 206.591 96.8474 206.567C97.0585 206.428 97.3002 206.342 97.5519 206.316C97.8035 206.291 98.0576 206.327 98.2922 206.421C98.3229 206.433 98.3559 206.436 98.3882 206.431C98.4204 206.426 98.451 206.413 98.477 206.393Z" fill="#263238"/>
<path d="M99.0305 215.6C99.14 215.558 99.2466 215.51 99.3497 215.454L99.6241 213.248C99.6241 213.248 99.4897 213.248 99.2825 213.248C98.5881 213.248 97.0425 213.405 96.6281 214.2C96.5829 214.291 96.5472 214.387 96.5217 214.485C96.4172 214.841 96.443 215.222 96.5945 215.561C96.8465 216.031 97.5185 216.277 99.0305 215.6Z" fill="#263238"/>
<path d="M96.5222 214.48L99.2158 213.505L99.283 213.242C98.5886 213.242 97.043 213.399 96.6286 214.194C96.5833 214.285 96.5477 214.381 96.5222 214.48Z" fill="white"/>
<path d="M99.0302 215.6C98.5598 214.816 97.3054 215.219 96.5942 215.567C96.8462 216.031 97.5182 216.278 99.0302 215.6Z" fill="#DE5753"/>
<path d="M84.56 211.982C83.7312 211.344 82.5216 209.625 84.1456 207.833C85.7696 206.041 87.6904 205.156 86.7832 203.857C85.876 202.558 87.4832 201.454 88.6144 202.3C88.6144 202.3 91.2744 197.949 93.1672 201.292C93.1672 201.292 95.0208 200.015 96.1576 201.387C97.2944 202.759 97.5296 204.226 96.0344 204.747C94.5392 205.268 94.3992 205.43 94.6568 206.298C94.9144 207.166 93.6152 207.883 93.6152 207.883C93.6152 207.883 94.4216 207.368 93.9624 206.763C93.8814 207.146 93.6905 207.498 93.413 207.774C93.1355 208.051 92.7835 208.24 92.4 208.32C90.9496 208.774 91.6216 210.185 91.6216 210.185C91.6216 210.185 90.8432 210.487 90.6752 209.378C90.6752 209.378 90.0704 211.854 88.4352 212.47C86.8 213.086 85.792 212.94 84.56 211.982Z" fill="#263238"/>
<path opacity="0.1" d="M105.712 230.748C105.443 231.7 105.191 232.669 104.956 233.643C104.953 233.664 104.953 233.684 104.956 233.705L103.068 233.772L101.764 233.817C100.728 233.845 99.6804 233.873 98.6164 233.89H98.23H97.5076H96.8076C97.4868 232.613 98.4436 231.505 99.6076 230.647C99.8148 230.49 100.032 230.346 100.257 230.216C100.723 229.96 101.228 229.784 101.752 229.695C103.159 229.516 104.58 229.894 105.712 230.748Z" fill="black"/>
<path d="M109.469 228.894C109.441 229.442 109.269 229.974 108.971 230.434C108.259 231.554 107.537 232.596 106.781 233.626L104.944 233.705L103.057 233.772L101.752 233.817C100.716 233.845 99.6691 233.873 98.6051 233.889C98.6667 233.822 98.7171 233.755 98.7731 233.688C99.7811 232.417 100.783 231.078 101.752 229.729C102.027 229.353 102.312 228.973 102.559 228.609C102.945 228.049 103.315 227.533 103.679 227.001L103.718 226.945C104.115 226.371 104.692 225.944 105.358 225.733C106.024 225.521 106.741 225.536 107.397 225.775C107.649 225.867 107.888 225.991 108.108 226.145C108.551 226.449 108.908 226.861 109.146 227.342C109.385 227.824 109.496 228.358 109.469 228.894Z" fill="#FFB573"/>
<path d="M109.788 228.911C109.489 230.58 108.842 232.167 107.889 233.57L106.769 233.626L104.932 233.705L103.045 233.772L101.74 233.817C100.704 233.845 99.6573 233.873 98.5933 233.889H98.2069H97.4845C98.1061 232.949 98.8733 231.773 99.5957 230.658C100.088 229.885 100.559 229.146 100.94 228.519L101.337 227.864C101.962 226.784 102.858 225.887 103.936 225.26C105.174 224.557 106.585 224.219 108.007 224.285C108.485 224.595 108.886 225.009 109.183 225.495C109.785 226.525 110 227.737 109.788 228.911Z" fill="#0A0A0A"/>
<path opacity="0.7" d="M109.788 228.911C109.489 230.58 108.842 232.167 107.889 233.57L106.769 233.626L104.932 233.705L103.045 233.772L101.74 233.817C100.704 233.845 99.6573 233.873 98.5933 233.889H98.2069H97.4845C98.1061 232.949 98.8733 231.773 99.5957 230.658C100.088 229.885 100.559 229.146 100.94 228.519L101.337 227.864C101.962 226.784 102.858 225.887 103.936 225.26C105.174 224.557 106.585 224.219 108.007 224.285C108.485 224.595 108.886 225.009 109.183 225.495C109.785 226.525 110 227.737 109.788 228.911Z" fill="white"/>
</g>
<defs>
<clipPath id="clip0_1_1081">
<rect width="280" height="280" fill="white"/>
</clipPath>
</defs>
</svg>
