<svg width="70" height="69" viewBox="0 0 70 69" fill="none" xmlns="http://www.w3.org/2000/svg">
<circle cx="35" cy="34.4932" r="34.4931" fill="#2B2B2B"/>
<g clip-path="url(#clip0_1_1508)">
<path d="M46.4947 34.2248C46.4947 33.2416 46.4131 32.524 46.2364 31.7799H34.7452V36.2179H41.4903C41.3543 37.3208 40.62 38.9818 38.9881 40.0979L38.9652 40.2464L42.5985 42.9966L42.8502 43.0212C45.162 40.935 46.4947 37.8656 46.4947 34.2248Z" fill="#F5F5F5"/>
<path d="M34.7452 45.9175C38.0497 45.9175 40.8239 44.8544 42.8502 43.0208L38.9881 40.0975C37.9546 40.8017 36.5675 41.2933 34.7452 41.2933C31.5087 41.2933 28.7617 39.2073 27.7825 36.3239L27.639 36.3358L23.8611 39.1926L23.8116 39.3268C25.8243 43.2333 29.9584 45.9175 34.7452 45.9175Z" fill="#F5F5F5"/>
<path d="M27.7833 36.324C27.5249 35.5799 27.3754 34.7825 27.3754 33.9588C27.3754 33.1349 27.5249 32.3377 27.7697 31.5936L27.7629 31.4351L23.9376 28.5324L23.8124 28.5905C22.9829 30.2116 22.507 32.0321 22.507 33.9588C22.507 35.8854 22.9829 37.7058 23.8124 39.3269L27.7833 36.324Z" fill="#F5F5F5"/>
<path d="M34.7452 26.6242C37.0434 26.6242 38.5937 27.5942 39.4776 28.4048L42.9318 25.1094C40.8104 23.1827 38.0497 22.0002 34.7452 22.0002C29.9584 22.0002 25.8243 24.6842 23.8116 28.5907L27.7689 31.5937C28.7617 28.7104 31.5087 26.6242 34.7452 26.6242Z" fill="#F5F5F5"/>
</g>
<defs>
<clipPath id="clip0_1_1508">
<rect width="24" height="24" fill="white" transform="translate(22.507 22.0002)"/>
</clipPath>
</defs>
</svg>
