<svg width="152" height="24" viewBox="0 0 152 24" fill="none" xmlns="http://www.w3.org/2000/svg">
<path d="M12 0C5.39999 0 0 5.40964 0 12.0723C0 18.0964 4.39199 23.0964 10.128 24V15.5663H7.07999V12.0723H10.128V9.40964C10.128 6.38554 11.916 4.72289 14.664 4.72289C15.972 4.72289 17.34 4.95181 17.34 4.95181V7.92771H15.828C14.34 7.92771 13.872 8.85542 13.872 9.80723V12.0723H17.208L16.668 15.5663H13.872V24C16.6997 23.5516 19.2746 22.103 21.1319 19.9157C22.9892 17.7284 24.0064 14.9466 24 12.0723C24 5.40964 18.6 0 12 0Z" fill="#2B2B2B"/>
<path d="M38.96 0H49.04C52.88 0 56 3.12 56 6.96V17.04C56 18.8859 55.2667 20.6562 53.9615 21.9615C52.6562 23.2667 50.8859 24 49.04 24H38.96C35.12 24 32 20.88 32 17.04V6.96C32 5.11409 32.7333 3.34379 34.0385 2.03854C35.3438 0.733284 37.1141 0 38.96 0ZM38.72 2.4C37.5743 2.4 36.4755 2.85514 35.6653 3.6653C34.8551 4.47546 34.4 5.57427 34.4 6.72V17.28C34.4 19.668 36.332 21.6 38.72 21.6H49.28C50.4257 21.6 51.5245 21.1449 52.3347 20.3347C53.1449 19.5245 53.6 18.4257 53.6 17.28V6.72C53.6 4.332 51.668 2.4 49.28 2.4H38.72ZM50.3 4.2C50.6978 4.2 51.0794 4.35804 51.3607 4.63934C51.642 4.92064 51.8 5.30218 51.8 5.7C51.8 6.09783 51.642 6.47936 51.3607 6.76066C51.0794 7.04197 50.6978 7.2 50.3 7.2C49.9022 7.2 49.5206 7.04197 49.2393 6.76066C48.958 6.47936 48.8 6.09783 48.8 5.7C48.8 5.30218 48.958 4.92064 49.2393 4.63934C49.5206 4.35804 49.9022 4.2 50.3 4.2ZM44 6C45.5913 6 47.1174 6.63214 48.2426 7.75736C49.3679 8.88258 50 10.4087 50 12C50 13.5913 49.3679 15.1174 48.2426 16.2426C47.1174 17.3679 45.5913 18 44 18C42.4087 18 40.8826 17.3679 39.7574 16.2426C38.6321 15.1174 38 13.5913 38 12C38 10.4087 38.6321 8.88258 39.7574 7.75736C40.8826 6.63214 42.4087 6 44 6ZM44 8.4C43.0452 8.4 42.1295 8.77928 41.4544 9.45442C40.7793 10.1295 40.4 11.0452 40.4 12C40.4 12.9548 40.7793 13.8705 41.4544 14.5456C42.1295 15.2207 43.0452 15.6 44 15.6C44.9548 15.6 45.8705 15.2207 46.5456 14.5456C47.2207 13.8705 47.6 12.9548 47.6 12C47.6 11.0452 47.2207 10.1295 46.5456 9.45442C45.8705 8.77928 44.9548 8.4 44 8.4Z" fill="#2B2B2B"/>
<path d="M80.6 5.82C79.9164 5.03962 79.5397 4.03743 79.54 3H76.45V15.4C76.4262 16.071 76.1429 16.7066 75.6598 17.1729C75.1767 17.6393 74.5315 17.8999 73.86 17.9C72.44 17.9 71.26 16.74 71.26 15.3C71.26 13.58 72.92 12.29 74.63 12.82V9.66C71.18 9.2 68.16 11.88 68.16 15.3C68.16 18.63 70.92 21 73.85 21C76.99 21 79.54 18.45 79.54 15.3V9.01C80.793 9.90985 82.2974 10.3926 83.84 10.39V7.3C83.84 7.3 81.96 7.39 80.6 5.82Z" fill="#2B2B2B"/>
<path d="M120 2.82353C119.117 3.31765 118.164 3.64235 117.178 3.79765C118.187 3.04941 118.967 1.86353 119.335 0.437647C118.382 1.14353 117.327 1.63765 116.214 1.92C115.308 0.705883 114.034 0 112.589 0C109.893 0 107.69 2.71059 107.69 6.05647C107.69 6.53647 107.736 7.00235 107.816 7.44C103.732 7.18588 100.096 4.77176 97.675 1.11529C97.2505 2.00471 97.0096 3.04941 97.0096 4.15059C97.0096 6.25412 97.87 8.11765 99.2008 9.17647C98.3862 9.17647 97.6291 8.89412 96.9637 8.47059V8.51294C96.9637 11.4494 98.6616 13.9059 100.91 14.4565C100.188 14.6996 99.4303 14.7334 98.696 14.5553C99.0076 15.7588 99.6178 16.8119 100.441 17.5665C101.264 18.3211 102.259 18.7393 103.285 18.7624C101.545 20.4571 99.3889 21.3732 97.1702 21.36C96.7801 21.36 96.3901 21.3318 96 21.2753C98.1797 22.9976 100.772 24 103.549 24C112.589 24 117.556 14.7671 117.556 6.76235C117.556 6.49412 117.556 6.24 117.545 5.97176C118.509 5.12471 119.335 4.05176 120 2.82353Z" fill="#2B2B2B"/>
<path d="M149.333 0C150.041 0 150.719 0.280951 151.219 0.781048C151.719 1.28115 152 1.95942 152 2.66667V21.3333C152 22.0406 151.719 22.7189 151.219 23.219C150.719 23.719 150.041 24 149.333 24H130.667C129.959 24 129.281 23.719 128.781 23.219C128.281 22.7189 128 22.0406 128 21.3333V2.66667C128 1.95942 128.281 1.28115 128.781 0.781048C129.281 0.280951 129.959 0 130.667 0H149.333ZM148.667 20.6667V13.6C148.667 12.4472 148.209 11.3416 147.394 10.5264C146.578 9.71128 145.473 9.25333 144.32 9.25333C143.187 9.25333 141.867 9.94667 141.227 10.9867V9.50667H137.507V20.6667H141.227V14.0933C141.227 13.0667 142.053 12.2267 143.08 12.2267C143.575 12.2267 144.05 12.4233 144.4 12.7734C144.75 13.1235 144.947 13.5983 144.947 14.0933V20.6667H148.667ZM133.173 7.41333C133.767 7.41333 134.337 7.17733 134.757 6.75725C135.177 6.33717 135.413 5.76742 135.413 5.17333C135.413 3.93333 134.413 2.92 133.173 2.92C132.576 2.92 132.003 3.1574 131.58 3.57999C131.157 4.00257 130.92 4.57571 130.92 5.17333C130.92 6.41333 131.933 7.41333 133.173 7.41333ZM135.027 20.6667V9.50667H131.333V20.6667H135.027Z" fill="#2B2B2B"/>
</svg>
