<svg width="32" height="32" viewBox="0 0 32 32" fill="none" xmlns="http://www.w3.org/2000/svg">
<circle cx="16" cy="16" r="13" fill="#F5F5F5"/>
<path fill-rule="evenodd" clip-rule="evenodd" d="M16 2.66668C8.63596 2.66668 2.66663 8.63602 2.66663 16C2.66663 23.364 8.63596 29.3334 16 29.3334C23.364 29.3334 29.3333 23.364 29.3333 16C29.3333 8.63602 23.364 2.66668 16 2.66668ZM11.3333 11.3334C11.3333 10.7205 11.454 10.1137 11.6885 9.54749C11.923 8.98131 12.2668 8.46686 12.7001 8.03352C13.1335 7.60018 13.6479 7.25643 14.2141 7.02191C14.7803 6.78739 15.3871 6.66668 16 6.66668C16.6128 6.66668 17.2196 6.78739 17.7858 7.02191C18.352 7.25643 18.8665 7.60018 19.2998 8.03352C19.7331 8.46686 20.0769 8.98131 20.3114 9.54749C20.5459 10.1137 20.6666 10.7205 20.6666 11.3334C20.6666 12.571 20.175 13.758 19.2998 14.6332C18.4246 15.5084 17.2376 16 16 16C14.7623 16 13.5753 15.5084 12.7001 14.6332C11.825 13.758 11.3333 12.571 11.3333 11.3334ZM7.03729 21.7867C9.23596 19.9894 12.4466 18.6667 16 18.6667C19.5533 18.6667 22.764 19.9894 24.9626 21.7867C23.9961 23.2849 22.6692 24.5166 21.1034 25.3692C19.5375 26.2218 17.7828 26.6679 16 26.6667C14.2171 26.6679 12.4624 26.2218 10.8965 25.3692C9.33071 24.5166 8.00379 23.2849 7.03729 21.7867Z" fill="#2B2B2B"/>
</svg>
